<?xml version="1.0" encoding="UTF-8" standalone="no"?> <svg xmlns="http://www.w3.org/2000/svg" xmlns:xlink="http://www.w3.org/1999/xlink" width="1106px" height="214px" viewBox="0 0 1106 214"><!-- Generator: Sketch 41.2 (35397) - http://www.bohemiancoding.com/sketch --><title>logo_alpha copy</title><desc>Created with Sketch.</desc><defs><linearGradient x1="50%" y1="0%" x2="50%" y2="100%" id="linearGradient-1"><stop stop-color="#09D9D5" offset="0%"></stop><stop stop-color="#03ACA4" offset="100%"></stop></linearGradient><linearGradient x1="50%" y1="0%" x2="50%" y2="100%" id="linearGradient-2"><stop stop-color="#00DAD3" offset="0%"></stop><stop stop-color="#00B2A7" offset="100%"></stop></linearGradient><linearGradient x1="50%" y1="0%" x2="50%" y2="100%" id="linearGradient-3"><stop stop-color="#04C7EF" offset="0%"></stop><stop stop-color="#0295D9" offset="100%"></stop></linearGradient></defs><g id="Page-1" stroke="none" stroke-width="1" fill="none" fill-rule="evenodd"><g id="logo_alpha" transform="translate(-131.000000, -478.000000)"><g id="logo_alpha-copy" transform="translate(131.000000, 478.000000)"><path d="M255.192,126.038 L271.152,126.038 L239.346,50 L227.718,50 L195,126.038 L211.074,126.038 L217.8,110.078 L248.466,110.078 L255.192,126.038 Z M222.474,97.994 L233.304,70.634 L244.134,97.994 L222.474,97.994 Z M324.768,76.676 L284.868,76.676 L284.868,105.746 C284.868,107.684 284.64,110.192 283.158,112.016 C282.246,113.156 280.536,114.41 277.458,114.41 C276.774,114.41 275.976,114.296 275.292,114.182 L275.292,126.038 C276.66,126.38 278.028,126.494 279.396,126.494 C287.49,126.494 291.708,122.39 292.734,121.25 C296.838,116.804 297.408,110.648 297.408,106.658 L297.408,88.532 L310.86,88.532 L310.86,126.038 L324.768,126.038 L324.768,76.676 Z M337.992,76.676 L337.992,126.038 L363.414,126.038 C366.72,126.038 370.824,125.582 374.472,122.39 C376.866,120.338 379.716,116.348 379.716,109.85 C379.716,104.948 378.12,101.528 375.954,99.248 C372.534,95.486 367.062,94.232 362.73,94.232 L351.9,94.232 L351.9,76.676 L337.992,76.676 Z M351.9,115.094 L351.9,105.176 L358.74,105.176 C359.994,105.176 362.046,105.29 363.528,106.316 C364.44,106.886 365.352,108.026 365.352,109.85 C365.352,111.788 364.44,113.156 363.528,113.84 C362.046,114.98 359.88,115.094 358.398,115.094 L351.9,115.094 Z M415.056,152.144 L428.964,152.144 L428.964,126.722 L430.104,126.722 C435.918,126.722 442.644,125.24 447.432,121.82 C451.878,118.742 457.236,112.358 457.236,101.3 C457.236,90.242 451.878,83.972 447.432,80.78 C441.618,76.676 434.778,75.992 430.104,75.992 L428.964,75.992 L428.964,50 L415.056,50 L415.056,75.992 L413.916,75.992 C409.242,75.992 402.402,76.676 396.588,80.78 C392.142,83.972 386.784,90.242 386.784,101.3 C386.784,112.358 392.142,118.742 396.588,121.82 C401.376,125.24 408.102,126.722 413.916,126.722 L415.056,126.722 L415.056,152.144 Z M415.056,114.41 C411.864,114.41 408.444,113.612 406.164,112.016 C401.718,109.052 401.148,104.492 401.148,101.3 C401.148,97.538 402.288,93.32 406.278,90.584 C408.786,88.874 412.092,88.19 415.056,88.304 L415.056,114.41 Z M428.964,88.304 C431.928,88.19 435.234,88.874 437.742,90.584 C441.732,93.32 442.872,97.538 442.872,101.3 C442.872,104.492 442.302,109.052 437.856,112.016 C435.576,113.612 432.156,114.41 428.964,114.41 L428.964,88.304 Z M505.8,83.06 C501.126,75.764 493.716,75.08 489.954,75.08 C475.362,75.08 465.444,86.708 465.444,101.3 C465.444,115.778 475.476,127.634 490.638,127.634 C494.172,127.634 500.784,126.836 505.8,119.654 L505.8,126.038 L519.708,126.038 L519.708,76.676 L505.8,76.676 L505.8,83.06 Z M493.488,87.392 C501.468,87.392 507.168,93.434 507.168,101.3 C507.168,109.166 501.468,115.322 493.488,115.322 C485.508,115.322 479.808,109.166 479.808,101.3 C479.808,93.434 485.508,87.392 493.488,87.392 Z M532.932,76.676 L532.932,126.038 L546.84,126.038 L546.84,107.684 L548.892,105.632 L565.992,126.038 L583.776,126.038 L560.292,98.678 L582.636,76.676 L565.308,76.676 L546.84,95.828 L546.84,76.676 L532.932,76.676 Z M627.096,78.044 C623.106,76.106 618.888,75.08 613.758,75.08 C608.97,75.08 602.016,76.106 595.974,81.464 C590.958,85.91 587.424,92.864 587.424,101.528 C587.424,110.762 591.528,116.918 595.29,120.452 C599.736,124.67 606.576,127.634 614.328,127.634 C620.028,127.634 624.36,125.924 627.096,124.556 L627.096,110.99 C623.334,114.41 619.23,115.322 616.152,115.322 C607.83,115.322 601.788,109.394 601.788,101.3 C601.788,94.118 606.462,87.392 615.696,87.392 C620.484,87.392 624.132,88.988 627.096,91.724 L627.096,78.044 Z M673.266,110.192 C670.986,114.182 666.996,116.69 661.752,116.69 C656.394,116.69 653.316,114.068 651.834,112.016 C650.238,109.85 649.44,106.658 649.44,103.694 L686.376,103.694 L686.376,102.554 C686.376,97.196 685.692,89.444 680.448,83.174 C677.028,79.07 671.214,75.08 661.182,75.08 C655.254,75.08 648.414,76.334 642.6,82.034 C639.066,85.568 635.076,91.61 635.076,101.414 C635.076,109.166 637.356,115.55 642.828,120.68 C647.73,125.354 653.772,127.634 661.752,127.634 C678.966,127.634 684.552,115.892 686.034,112.244 L673.266,110.192 Z M649.896,94.802 C651.036,88.19 656.394,84.884 661.524,84.884 C666.654,84.884 672.126,88.076 673.266,94.802 L649.896,94.802 Z M740.868,76.676 L700.968,76.676 L700.968,105.746 C700.968,107.684 700.74,110.192 699.258,112.016 C698.346,113.156 696.636,114.41 693.558,114.41 C692.874,114.41 692.076,114.296 691.392,114.182 L691.392,126.038 C692.76,126.38 694.128,126.494 695.496,126.494 C703.59,126.494 707.808,122.39 708.834,121.25 C712.938,116.804 713.508,110.648 713.508,106.658 L713.508,88.532 L726.96,88.532 L726.96,126.038 L740.868,126.038 L740.868,76.676 Z M789.774,110.192 C787.494,114.182 783.504,116.69 778.26,116.69 C772.902,116.69 769.824,114.068 768.342,112.016 C766.746,109.85 765.948,106.658 765.948,103.694 L802.884,103.694 L802.884,102.554 C802.884,97.196 802.2,89.444 796.956,83.174 C793.536,79.07 787.722,75.08 777.69,75.08 C771.762,75.08 764.922,76.334 759.108,82.034 C755.574,85.568 751.584,91.61 751.584,101.414 C751.584,109.166 753.864,115.55 759.336,120.68 C764.238,125.354 770.28,127.634 778.26,127.634 C795.474,127.634 801.06,115.892 802.542,112.244 L789.774,110.192 Z M766.404,94.802 C767.544,88.19 772.902,84.884 778.032,84.884 C783.162,84.884 788.634,88.076 789.774,94.802 L766.404,94.802 Z M827.508,119.654 C832.98,127.064 839.934,127.634 843.354,127.634 C850.65,127.634 856.35,124.784 860.112,121.25 C862.962,118.514 867.864,112.472 867.864,101.3 C867.864,91.496 864.102,85.34 860.454,81.692 C854.868,76.106 847.914,75.08 843.582,75.08 C834.462,75.08 829.674,79.982 827.508,83.06 L827.508,76.676 L813.6,76.676 L813.6,152.144 L827.508,152.144 L827.508,119.654 Z M839.82,87.392 C843.126,87.392 846.774,88.646 849.282,90.926 C852.018,93.548 853.5,97.652 853.5,101.3 C853.5,104.948 852.132,109.052 849.168,111.788 C847.344,113.498 844.38,115.322 839.82,115.322 C835.488,115.322 832.524,113.612 830.7,112.016 C827.964,109.622 826.14,105.86 826.14,101.3 C826.14,96.74 827.736,93.32 830.814,90.698 C833.322,88.418 836.172,87.392 839.82,87.392 Z M916.428,83.06 C911.754,75.764 904.344,75.08 900.582,75.08 C885.99,75.08 876.072,86.708 876.072,101.3 C876.072,115.778 886.104,127.634 901.266,127.634 C904.8,127.634 911.412,126.836 916.428,119.654 L916.428,126.038 L930.336,126.038 L930.336,76.676 L916.428,76.676 L916.428,83.06 Z M904.116,87.392 C912.096,87.392 917.796,93.434 917.796,101.3 C917.796,109.166 912.096,115.322 904.116,115.322 C896.136,115.322 890.436,109.166 890.436,101.3 C890.436,93.434 896.136,87.392 904.116,87.392 Z M978.9,88.532 L978.9,76.676 L937.632,76.676 L937.632,88.532 L951.312,88.532 L951.312,126.038 L965.22,126.038 L965.22,88.532 L978.9,88.532 Z M1011.96,75.08 C1002.612,75.08 996.228,78.158 992.01,82.034 C987.108,86.48 983.688,93.32 983.688,101.414 C983.688,109.394 987.108,116.234 992.01,120.68 C996.228,124.556 1002.612,127.634 1011.96,127.634 C1021.308,127.634 1027.692,124.556 1031.91,120.68 C1036.812,116.234 1040.232,109.394 1040.232,101.414 C1040.232,93.32 1036.812,86.48 1031.91,82.034 C1027.692,78.158 1021.308,75.08 1011.96,75.08 Z M1011.96,115.322 C1003.866,115.322 998.052,108.938 998.052,101.414 C998.052,93.662 1003.98,87.392 1011.96,87.392 C1019.94,87.392 1025.868,93.662 1025.868,101.414 C1025.868,108.938 1020.054,115.322 1011.96,115.322 Z M1064.856,119.654 C1070.328,127.064 1077.282,127.634 1080.702,127.634 C1087.998,127.634 1093.698,124.784 1097.46,121.25 C1100.31,118.514 1105.212,112.472 1105.212,101.3 C1105.212,91.496 1101.45,85.34 1097.802,81.692 C1092.216,76.106 1085.262,75.08 1080.93,75.08 C1071.81,75.08 1067.022,79.982 1064.856,83.06 L1064.856,76.676 L1050.948,76.676 L1050.948,152.144 L1064.856,152.144 L1064.856,119.654 Z M1077.168,87.392 C1080.474,87.392 1084.122,88.646 1086.63,90.926 C1089.366,93.548 1090.848,97.652 1090.848,101.3 C1090.848,104.948 1089.48,109.052 1086.516,111.788 C1084.692,113.498 1081.728,115.322 1077.168,115.322 C1072.836,115.322 1069.872,113.612 1068.048,112.016 C1065.312,109.622 1063.488,105.86 1063.488,101.3 C1063.488,96.74 1065.084,93.32 1068.162,90.698 C1070.67,88.418 1073.52,87.392 1077.168,87.392 Z" id="Альфакселератор-Copy-3" fill="url(#linearGradient-1)"></path><path d="M35.3830991,126.80923 C35.3127111,126.710686 34.7496074,126.654376 33.9190295,126.640298 C33.1729171,126.640298 32.2015633,126.569911 31.7792355,126.499523 C31.3569077,126.429135 30.6107954,126.316514 30.1321572,126.246126 C28.9214843,126.077195 27.3025612,125.711177 26.0074228,125.317005 C25.585095,125.204384 24.9797585,125.035453 24.6700515,124.950987 C24.3603445,124.866522 24.0506375,124.753901 23.9661719,124.669436 C23.8957839,124.599048 23.7268528,124.542737 23.6001545,124.542737 C23.4734562,124.542737 23.065206,124.416039 22.685111,124.247108 C22.305016,124.092254 21.8686107,123.909246 21.7137572,123.838858 C21.3899726,123.712159 18.5603766,122.318478 17.9972729,122.022848 C17.8001866,121.910228 17.6171779,121.769452 17.5890227,121.699064 C17.5608675,121.642753 17.4623244,121.586443 17.3778588,121.586443 C17.2230053,121.586443 14.2104006,119.61558 13.8725384,119.291795 C13.7739953,119.193252 13.3657451,118.869468 12.9856501,118.559761 C11.5638133,117.433553 8.9031484,114.7025 7.847329,113.294741 C7.65024271,113.041345 7.38276846,112.71756 7.25607013,112.604939 C7.11529421,112.478241 6.76335441,111.971448 6.48180257,111.478732 C6.18617313,110.986016 5.84831092,110.521456 5.707535,110.451068 C5.38375039,110.282137 4.80656911,109.282627 4.62356041,108.56467 C4.53909486,108.254963 4.18715506,107.438463 3.83521526,106.762738 C3.48327546,106.087014 3.20172362,105.439445 3.20172362,105.326824 C3.20172362,105.214203 3.14541325,105.11566 3.07502529,105.11566 C3.00463733,105.11566 2.89201659,104.918574 2.84978381,104.665177 C2.79347345,104.411781 2.6949303,104.116151 2.62454234,103.989453 C2.31483532,103.440427 1.62503331,101.173934 1.23086073,99.4142354 C1.14639517,99.0341405 1.00561925,98.5132695 0.935231294,98.2739505 C0.780377781,97.739002 0.5692139,96.359398 0.372127612,94.6278541 C0.301739651,93.9380521 0.175041323,92.7555344 0.0905757704,92.0234996 C-0.148743295,89.9822488 0.118730955,82.5774353 0.512903532,80.2827878 C0.653679453,79.4099771 0.878920926,77.9881403 1.09008481,76.4677604 C1.16047277,76.0031998 1.2730935,75.4400962 1.35755906,75.2289323 C1.44202461,75.0036908 1.51241257,74.6799062 1.51241257,74.4968975 C1.51241257,74.3279664 1.61095571,73.8352507 1.73765404,73.4270005 C1.85027478,73.0046727 2.03328347,72.3571035 2.14590421,71.9629309 C2.59638716,70.4003182 3.3988099,68.0212051 3.51143064,67.9789724 C3.56774101,67.9508172 3.62405138,67.7959637 3.62405138,67.6411102 C3.62405138,67.4862566 3.70851693,67.1906272 3.82113767,66.9935409 C4.21531024,66.2051958 4.60948282,65.3042299 4.60948282,65.1493764 C4.60948282,65.0649108 4.67987078,64.9945228 4.75025874,64.9945228 C4.8347243,64.9945228 4.89103466,64.8959797 4.89103466,64.783359 C4.89103466,64.6003503 5.83423333,62.643565 6.01724203,62.4605563 C6.0594748,62.4183235 6.22840591,62.1086165 6.41141461,61.7566767 C6.777432,61.0387195 6.86189755,60.8979436 7.63616512,59.7295034 C8.29781194,58.744072 8.87499322,57.913494 8.97353636,57.8149509 C9.01576914,57.7727181 9.29732098,57.4348559 9.607028,57.0406833 C9.91673503,56.6605883 10.29683,56.1819502 10.4516835,55.9848639 C10.8317785,55.534381 13.5909866,52.7610953 14.1118575,52.3387676 C15.2099096,51.4237241 16.8429103,50.2130512 16.9836862,50.2130512 C17.0681518,50.2130512 17.1385398,50.1426632 17.1385398,50.0722753 C17.1385398,49.9878097 17.2793157,49.8611114 17.4623244,49.7907234 C17.8001866,49.6358699 18.2929023,49.3402405 18.405523,49.2135421 C18.7433853,48.8334472 22.8258869,46.8344291 23.2622923,46.8344291 C23.3608354,46.8344291 23.4734562,46.7781187 23.5016114,46.7218084 C23.5579217,46.5810324 26.5705264,45.5674458 26.9506214,45.5674458 C27.0913973,45.5674458 27.274406,45.5111354 27.3588716,45.4407475 C27.4292596,45.3562819 27.8375097,45.2295836 28.2598375,45.1591956 C28.6821652,45.0747301 29.4142,44.9480318 29.8787606,44.8635662 C30.3433211,44.7791006 31.0753559,44.6242471 31.4976837,44.5397816 C32.5675807,44.3145401 40.7185065,44.3145401 41.7743259,44.5397816 C42.1966536,44.6383247 42.9568436,44.7791006 43.4636369,44.8635662 C45.3781894,45.1591956 46.0679914,45.2999716 46.2791553,45.4125923 C46.4058537,45.4829803 46.7859486,45.5815234 47.1238108,45.6378338 C47.4757506,45.6941441 47.8276905,45.7926873 47.8980784,45.8489976 C47.982544,45.905308 48.3063286,46.0038512 48.6301132,46.0601615 C48.9679754,46.1164719 49.2636048,46.215015 49.3199152,46.285403 C49.362148,46.355791 49.5310791,46.4121013 49.7000102,46.4121013 C49.8689413,46.4121013 50.1927259,46.5106445 50.4179674,46.6232652 C50.6291313,46.7358859 50.8825279,46.8344291 50.9529159,46.8344291 C51.0373814,46.8344291 51.2907781,46.9188946 51.5300972,47.0315154 C51.7834938,47.1300585 52.262132,47.3271448 52.6140718,47.4679207 C53.9092102,47.9606365 57.1470564,49.495094 57.2596771,49.6640251 C57.3019099,49.7203355 57.5130738,49.8188786 57.7242377,49.8611114 C57.9354016,49.9174218 58.1043327,50.0159649 58.1043327,50.0863529 C58.1043327,50.1567408 58.1887982,50.2130512 58.3014189,50.2130512 C58.4140397,50.2130512 58.5970484,50.2975167 58.6955915,50.3819823 C58.991221,50.6494565 59.3994711,50.9028532 59.8358765,51.0999395 C60.0470404,51.184405 60.2159715,51.3111034 60.2159715,51.3674137 C60.2159715,51.4237241 60.2863594,51.4800345 60.3567474,51.4800345 C60.5256785,51.4800345 61.3844116,52.0572157 61.4547996,52.2261468 C61.4829548,52.2824572 61.5674203,52.32469 61.6378083,52.32469 C61.7926618,52.32469 62.6513949,52.9159489 62.7217829,53.0708024 C62.749938,53.1271127 62.8344036,53.1693455 62.9047915,53.1693455 C63.0596451,53.1693455 64.3547835,54.1406994 64.4110939,54.3096305 C64.4392491,54.3800184 64.5377922,54.4363288 64.6222578,54.4363288 C64.7208009,54.4363288 65.0164304,54.6474927 65.2979822,54.9008893 C65.579534,55.1402084 66.1144825,55.6047689 66.4945775,55.914476 C68.3950525,57.4770887 72.8858043,61.9678406 72.8858043,62.3057028 C72.8858043,62.3760907 72.9702699,62.4605563 73.0828906,62.5027891 C73.2095889,62.5590994 73.3503649,62.3760907 73.519296,61.9959957 C73.6459943,61.6722111 73.8430806,61.2217282 73.9416237,60.9824091 C74.13871,60.5319262 74.3780291,59.9829001 74.7862792,58.9411583 C75.2930726,57.6882526 75.5746244,57.0406833 75.6872451,56.8295195 C75.7576331,56.7028211 75.8561762,56.4071917 75.9124866,56.153795 C75.9547194,55.9003984 76.0673401,55.7033121 76.1377281,55.7033121 C76.208116,55.7033121 76.2644264,55.6188465 76.2644264,55.5062258 C76.2644264,55.4076827 76.3911247,55.0135101 76.5600558,54.6334151 C76.7149094,54.2533201 76.9401508,53.7183716 77.0527716,53.4508974 C77.1653923,53.1834231 77.3202458,52.8455609 77.3906338,52.7188626 C77.4750993,52.5780867 77.5314097,52.395078 77.5314097,52.32469 C77.5314097,52.2402244 77.658108,51.874207 77.8270391,51.5081897 C78.2212117,50.5931462 78.3056773,50.3960599 78.6576171,49.5091716 C78.8124706,49.0868438 79.0095569,48.6082057 79.0799448,48.4533522 C79.1362552,48.2984987 79.3333415,47.8198605 79.5022726,47.3975328 C79.8260572,46.5528772 79.8401348,46.5247221 80.4736264,45.1028853 C80.7129455,44.5679368 80.9100318,44.0892986 80.9100318,44.0329883 C80.9100318,43.9626003 81.0367301,43.6106605 81.2056612,43.2305655 C81.6420666,42.1888237 81.8954632,41.5975648 82.0643943,41.2033923 C82.1347823,41.006306 82.2896358,40.6684438 82.4022566,40.4291247 C82.5007997,40.2038832 82.627498,39.8378658 82.6838084,39.626702 C82.7260412,39.4014605 82.8245843,39.2325294 82.8949723,39.2325294 C82.9653602,39.2325294 83.0216706,39.105831 83.0216706,38.9368999 C83.0216706,38.7820464 83.1202137,38.4723394 83.2328345,38.2752531 C83.3313776,38.0640892 83.6692398,37.2898217 83.9507917,36.5577869 C84.2323435,35.8257521 84.5138954,35.1218725 84.5702057,35.0092518 C84.6405937,34.896631 84.7954472,34.516536 84.9221455,34.1645962 C85.0488439,33.8126564 85.2459302,33.3480959 85.3444733,33.1087768 C85.5415596,32.6582939 85.7808786,32.1092678 86.1891288,31.067526 C86.6959221,29.8146203 86.977474,29.1670511 87.0900947,28.9558872 C87.1604827,28.8291888 87.2590258,28.5335594 87.3153362,28.2801628 C87.357569,28.0267661 87.4701897,27.8296798 87.5405777,27.8296798 C87.6109656,27.8296798 87.667276,27.7311367 87.667276,27.6185159 C87.667276,27.5058952 87.7658191,27.1821106 87.8925175,26.8864811 C88.357078,25.788429 88.4837763,25.4927995 88.7230954,24.8733855 C88.8497937,24.5214457 89.04688,24.0568851 89.1454232,23.8175661 C89.2439663,23.5923246 89.426975,23.1136865 89.5677509,22.7617467 C89.6944492,22.4098069 89.8915355,21.9452463 89.9900787,21.7059273 C90.2857081,21.0442804 90.5672599,20.368556 90.9191998,19.4535125 C91.1022084,18.988952 91.2992947,18.5947794 91.3696827,18.5666242 C91.4259931,18.538469 91.4682258,18.4258483 91.4682258,18.29915 C91.4682258,18.1020637 91.6653121,17.609348 92.1017175,16.6379941 C92.2143382,16.4127526 92.4395797,15.8637266 92.5944332,15.4413988 C92.7633643,15.019071 92.9886058,14.4418898 93.1012265,14.1744155 C93.396856,13.4986911 93.5094767,13.2452944 93.8614165,12.3443285 C94.01627,11.9220008 94.2133563,11.4433626 94.2837443,11.2885091 C94.3400546,11.1336556 94.5371409,10.6550175 94.706072,10.2326897 C94.8609255,9.81036197 95.0580118,9.33172384 95.1283998,9.17687032 C95.1847101,9.02201681 95.395874,8.5152235 95.5788827,8.05066296 C95.7478138,7.58610242 95.9449001,7.17785225 96.0152881,7.16377466 C96.0715984,7.13561948 96.1138312,7.02299874 96.1138312,6.89630041 C96.1138312,6.78367967 96.2123744,6.45989506 96.3390727,6.17834322 C96.9725643,4.71427364 97.1274179,4.37641143 97.2541162,4.15116996 C97.3245041,4.01039404 97.3808145,3.82738534 97.3808145,3.75699738 C97.3808145,3.67253183 97.5075128,3.30651443 97.6764439,2.94049704 C97.8312975,2.57447965 98.0283837,2.1239967 98.0987717,1.92691041 C98.1832373,1.72982412 98.3380908,1.39196191 98.4507115,1.18079803 C98.5633322,0.95555656 98.6477978,0.702159903 98.6477978,0.603616759 C98.6477978,0.505073614 98.7322633,0.322064918 98.8308065,0.181288997 C98.9997376,-0.058030068 99.0419704,-0.058030068 99.5628413,0.167211405 C100.632738,0.631771943 100.9706,0.772547864 101.604092,1.01186693 C101.956032,1.13856526 102.43467,1.33565155 102.659912,1.43419469 C102.899231,1.53273783 103.363791,1.71574653 103.715731,1.85652245 C104.067671,1.98322078 104.546309,2.18030707 104.77155,2.27885021 C105.222033,2.4759365 105.771059,2.71525557 106.812801,3.12350574 C108.065707,3.63029905 108.713276,3.91185089 108.92444,4.02447163 C109.051138,4.09485959 109.346768,4.19340273 109.600164,4.2497131 C109.853561,4.29194588 110.050647,4.40456662 110.050647,4.47495458 C110.050647,4.54534254 110.135113,4.6016529 110.247734,4.6016529 C110.416665,4.6016529 111.176855,4.89728234 112.091898,5.30553251 C112.246752,5.37592047 112.72539,5.57300676 113.147718,5.72786027 C114.062761,6.07980007 114.808873,6.3895071 115.146736,6.57251579 C115.287512,6.65698135 115.484598,6.71329171 115.583141,6.71329171 C115.681684,6.71329171 115.892848,6.81183486 116.061779,6.92445559 L116.371486,7.13561948 L116.089934,7.81134389 C115.935081,8.17736129 115.752072,8.59968905 115.681684,8.75454256 C115.611296,8.90939608 115.329744,9.61327568 115.048193,10.3030777 C114.766641,11.0069573 114.485089,11.6967593 114.428778,11.8516128 C114.358391,12.0064663 114.189459,12.4147165 114.048684,12.7666563 C113.584123,13.9350964 113.274416,14.6671312 113.161795,14.8782951 C113.091407,15.0049934 112.992864,15.3006229 112.936554,15.5540195 C112.894321,15.8074162 112.7817,16.0045025 112.711312,16.0045025 C112.640924,16.0045025 112.584614,16.1171232 112.584614,16.2578991 C112.584614,16.3986751 112.500148,16.6239165 112.387528,16.77877 C112.288985,16.9336236 112.148209,17.2855634 112.091898,17.5530376 C112.035588,17.8205119 111.937045,18.0739085 111.894812,18.1161413 C111.754036,18.2146844 111.317631,19.1860383 111.317631,19.3831246 C111.317631,19.4675901 111.134622,19.9180731 110.895303,20.3967112 C110.670061,20.8612717 110.472975,21.3258323 110.472975,21.4243754 C110.472975,21.5229186 110.346277,21.9030135 110.177346,22.2831085 C110.022492,22.6632035 109.839483,23.0996089 109.769096,23.2544624 C109.712785,23.4093159 109.501621,23.9161092 109.318613,24.3806698 C109.149681,24.8452303 108.952595,25.2534805 108.896285,25.2675581 C108.825897,25.2957132 108.783664,25.408334 108.783664,25.5350323 C108.783664,25.647653 108.685121,25.9714377 108.558423,26.2529895 C108.445802,26.5486189 108.248716,26.9991019 108.122017,27.2665761 C108.009397,27.5340504 107.826388,27.9423005 107.713767,28.1534644 C107.601146,28.3787059 107.516681,28.618025 107.516681,28.6884129 C107.516681,28.7728785 107.389982,29.1248183 107.221051,29.4908357 C107.066198,29.8568531 106.869112,30.307336 106.784646,30.5044223 C106.714258,30.7015086 106.559405,31.0534484 106.446784,31.2786899 C106.348241,31.5180089 106.221542,31.8699487 106.165232,32.0951902 C106.122999,32.3063541 106.024456,32.4752852 105.954068,32.4752852 C105.88368,32.4752852 105.82737,32.5738283 105.82737,32.7005267 C105.82737,32.827225 105.728827,33.1510096 105.602128,33.4325614 C105.489508,33.7281909 105.306499,34.1505186 105.207956,34.3757601 C105.095335,34.6150792 104.912326,35.0796397 104.77155,35.4315795 C104.644852,35.7835193 104.447766,36.2621575 104.349223,36.4873989 C104.250679,36.726718 104.067671,37.1912785 103.926895,37.5432183 C103.800196,37.8951581 103.60311,38.3737963 103.504567,38.5990377 C103.208938,39.2606846 102.927386,39.936409 102.575446,40.8514525 C102.392437,41.316013 102.195351,41.7242632 102.139041,41.7383408 C102.068653,41.7664959 102.02642,41.8931943 102.02642,42.0198926 C102.02642,42.1606685 101.941954,42.4281428 101.829334,42.6393067 C101.716713,42.8504705 101.590015,43.2024103 101.533704,43.4417294 C101.477394,43.6810485 101.378851,43.8781348 101.308463,43.8781348 C101.238075,43.8781348 101.181764,43.9626003 101.181764,44.075221 C101.181764,44.2441521 100.984678,44.7509455 100.407497,46.0601615 C100.308954,46.2994806 100.125945,46.7781187 99.9992466,47.1441361 C99.8725483,47.5101535 99.7176948,47.9324813 99.6473068,48.0591796 C99.5769189,48.1999555 99.4079878,48.5941281 99.2812894,48.9460679 C99.1405135,49.2980077 98.9011945,49.8611114 98.7604185,50.2130512 C98.3944011,51.0436291 98.3099356,51.254793 97.915763,52.254302 C97.7468319,52.7188626 97.5497456,53.1271127 97.4934352,53.1411903 C97.4230473,53.1693455 97.3808145,53.2819663 97.3808145,53.4086646 C97.3808145,53.5212853 97.2822714,53.8450699 97.155573,54.1266218 C96.5220814,55.5906914 96.3672279,55.9285536 96.2405296,56.153795 C96.1701416,56.294571 96.1138312,56.4775797 96.1138312,56.5479676 C96.1138312,56.6324332 95.9871329,56.9984506 95.8182018,57.364468 C95.4240292,58.2795114 95.3395637,58.4765977 94.9876239,59.363486 C94.8327703,59.7858138 94.6356841,60.2644519 94.5652961,60.4193054 C94.5089857,60.5741589 94.3118994,61.0527971 94.1429683,61.4751248 C93.7910285,62.3760907 93.6220974,62.7843409 93.3546232,63.3755998 C93.25608,63.6149188 93.1293817,63.9668586 93.0730713,64.1921001 C93.0308386,64.403264 92.9322954,64.5721951 92.8619075,64.5721951 C92.7915195,64.5721951 92.7352091,64.6707382 92.7352091,64.783359 C92.7352091,64.8959797 92.636666,65.2197643 92.5099677,65.5153938 C92.3832693,65.8110232 92.1580279,66.3318941 92.0031743,66.6838339 C91.8483208,67.0357737 91.6793897,67.4299463 91.5949242,67.5566446 C91.5245362,67.6974205 91.4682258,67.8804292 91.4682258,67.9789724 C91.4541482,68.0775155 91.3415275,68.4153777 91.186674,68.7250847 C91.0318205,69.0347918 90.9191998,69.372654 90.9051222,69.4711971 C90.9051222,69.5556627 90.8488118,69.6401282 90.7643462,69.6401282 C90.6939583,69.6401282 90.6235703,69.7809041 90.6235703,69.9639128 C90.6235703,70.132844 90.5391048,70.4003182 90.426484,70.5551717 C90.3279409,70.7100252 90.187165,71.0478874 90.1308546,71.3012841 C90.0886218,71.5406032 89.9900787,71.751767 89.9478459,71.751767 C89.8915355,71.751767 89.7648372,72.0192413 89.6662941,72.3571035 C89.497363,72.8779744 88.8357161,74.5532079 88.3148452,75.7638808 C88.2022245,76.0031998 88.0051382,76.4677604 87.8643623,76.8197002 C87.7376639,77.17164 87.4983449,77.7347437 87.357569,78.0866835 C87.2027154,78.4386233 87.0197068,78.8750286 86.9493188,79.0721149 C86.8648532,79.2692012 86.7099997,79.6070634 86.597379,79.8323049 C86.4143703,80.1842447 86.4143703,80.2687102 86.6114566,80.4798741 C86.7240773,80.6065724 86.8226205,80.7755035 86.8226205,80.8599691 C86.8226205,80.9444347 86.9211636,81.0429778 87.0337843,81.0992882 C87.1464051,81.1415209 87.2449482,81.2541417 87.2449482,81.3667624 C87.2449482,81.4653056 87.4420345,81.7327798 87.667276,81.9580213 C87.9065951,82.1832628 88.0896037,82.4366594 88.0896037,82.5352026 C88.0896037,82.6337457 88.1459141,82.7322888 88.2163021,82.760444 C88.3852332,82.8167544 89.356587,84.1118929 89.356587,84.280824 C89.356587,84.3652895 89.4128974,84.4215999 89.4832854,84.4215999 C89.5536733,84.4215999 89.80707,84.7172293 90.0323115,85.0973243 C90.2575529,85.4633417 90.5813375,85.9138247 90.7502686,86.1109109 C91.1444412,86.5895491 91.2289068,86.6880922 91.4823034,87.0963424 C91.6090018,87.2934287 91.8342432,87.5890581 91.9750192,87.7579892 C92.1298727,87.9128427 92.3410365,88.1943946 92.4536573,88.3633257 C92.6507436,88.6448775 93.0589937,89.2079812 93.3405456,89.559921 C94.1148131,90.5453524 95.2691757,92.1783531 95.2691757,92.2909739 C95.2691757,92.3613618 95.3254861,92.4458274 95.395874,92.4739826 C95.5648051,92.5302929 96.536159,93.8254314 96.536159,93.9802849 C96.536159,94.0506729 96.5924694,94.1351384 96.6628573,94.1632936 C96.8317884,94.219604 97.8031423,95.5147424 97.8031423,95.6836735 C97.8031423,95.7681391 97.8594526,95.8244495 97.9439182,95.8244495 C98.0143062,95.8244495 98.2395476,96.1060013 98.4507115,96.4579411 C98.6477978,96.8098809 98.8730393,97.0914327 98.9434272,97.0914327 C99.0138152,97.0914327 99.0701256,97.1758983 99.0701256,97.288519 C99.0701256,97.4011398 99.1264359,97.5137605 99.1827463,97.5419157 C99.2531343,97.5700709 99.5487637,97.9360883 99.8443931,98.358416 C100.140023,98.7807438 100.435652,99.188994 100.50604,99.2734595 C100.56235,99.3438475 100.85798,99.7380201 101.139532,100.118115 C101.435161,100.512288 101.716713,100.892383 101.773023,100.962771 C102.153118,101.427331 104.166214,104.172462 104.560386,104.76372 C104.813783,105.157893 105.151645,105.594298 105.278344,105.749152 C105.996301,106.551575 106.672025,107.452541 106.672025,107.607394 C106.672025,107.705937 106.728336,107.790403 106.798724,107.790403 C106.869112,107.790403 106.967655,107.903023 107.009887,108.043799 C107.066198,108.170498 107.291439,108.50836 107.516681,108.775834 C108.037552,109.381171 108.093862,109.465636 108.375414,109.902042 C108.502112,110.099128 108.741431,110.408835 108.910362,110.605921 C109.318613,111.098637 109.389001,111.19718 109.670552,111.633585 C109.923949,112.01368 109.909871,112.027758 109.529776,112.36562 C109.318613,112.548629 109.065216,112.71756 108.966673,112.71756 C108.882207,112.71756 108.783664,112.77387 108.755509,112.844258 C108.699199,113.013189 107.40406,113.984543 107.235129,113.984543 C107.150663,113.984543 107.094353,114.040854 107.094353,114.125319 C107.094353,114.195707 106.812801,114.420949 106.460861,114.632112 C106.108922,114.829199 105.82737,115.05444 105.82737,115.124828 C105.82737,115.195216 105.756982,115.251527 105.686594,115.251527 C105.602128,115.251527 105.461352,115.321914 105.362809,115.392302 C104.743395,115.913173 104.504076,116.096182 104.433688,116.096182 C104.391455,116.096182 104.194369,116.236958 103.997283,116.419967 C103.800196,116.588898 103.420102,116.884527 103.13855,117.081613 C102.856998,117.2787 102.448748,117.574329 102.223506,117.757338 C100.85798,118.813157 99.3375998,119.897132 99.2249791,119.897132 C99.1545911,119.897132 99.0701256,119.953442 99.0419704,120.02383 C98.98566,120.192761 97.6905215,121.164115 97.5215904,121.164115 C97.4371249,121.164115 97.3808145,121.220426 97.3808145,121.290814 C97.3808145,121.361201 97.0711075,121.614598 96.6910125,121.867995 C96.2968399,122.107314 95.775969,122.487409 95.5225724,122.71265 C95.2691757,122.951969 94.9876239,123.134978 94.9031583,123.134978 C94.7201496,123.134978 93.1575369,121.121882 93.1575369,120.882563 C93.1575369,120.812175 93.1012265,120.741787 93.016761,120.741787 C92.946373,120.741787 92.7211315,120.460236 92.5099677,120.108296 C92.3128814,119.756356 92.1017175,119.474804 92.0454071,119.474804 C91.9890967,119.474804 91.8060881,119.235485 91.6512345,118.939856 C91.4823034,118.658304 91.186674,118.264131 90.9895877,118.081123 C90.7925014,117.884036 90.6235703,117.672872 90.6235703,117.588407 C90.6235703,117.503941 90.3420185,117.123846 89.9900787,116.729674 C89.6522165,116.349579 89.356587,115.941329 89.356587,115.856863 C89.356587,115.75832 89.3002767,115.673854 89.2439663,115.673854 C89.1876559,115.673854 88.9624145,115.40638 88.7512506,115.082595 C88.5400867,114.744733 88.2303797,114.308328 88.0614486,114.097164 C87.8784399,113.900078 87.6391208,113.590371 87.5265001,113.42144 C87.3294138,113.12581 86.8930084,112.534551 86.6396118,112.224844 C85.907577,111.309801 83.4439984,107.888946 83.4439984,107.790403 C83.4439984,107.734092 83.387688,107.649627 83.3173,107.621472 C83.1483689,107.565161 82.1770151,106.270023 82.1770151,106.101092 C82.1770151,106.016626 82.1207047,105.960316 82.0643943,105.960316 C82.008084,105.960316 81.7687649,105.678764 81.557601,105.326824 C81.3323596,104.974884 81.0930405,104.693332 81.0367301,104.693332 C80.9663422,104.693332 80.9100318,104.594789 80.9100318,104.482169 C80.9100318,104.369548 80.8537214,104.271005 80.7974111,104.271005 C80.7411007,104.271005 80.5017816,103.989453 80.2906177,103.637513 C80.0653763,103.285573 79.8260572,103.004021 79.7697468,103.004021 C79.6993589,103.004021 79.6430485,102.933633 79.6430485,102.849168 C79.6430485,102.764702 79.558583,102.609849 79.4741174,102.511306 C79.1925656,102.201599 79.0377121,101.990435 78.6576171,101.427331 C78.4605308,101.131702 78.2634445,100.892383 78.2071341,100.892383 C78.1367462,100.892383 78.0945134,100.779762 78.0945134,100.653064 C78.0804358,100.427822 78.0663582,100.427822 77.8692719,100.681219 C77.7425736,100.836072 77.5877201,101.131702 77.5032545,101.356943 C77.4328666,101.568107 77.3061682,101.737038 77.2357803,101.737038 C77.1653923,101.737038 77.1090819,101.807426 77.1090819,101.891892 C77.1090819,102.088978 76.1095729,103.764211 75.9547194,103.820522 C75.898409,103.848677 75.8420987,103.94722 75.8420987,104.017608 C75.8420987,104.228772 73.5615287,107.649627 73.4207528,107.649627 C73.3644425,107.649627 73.3081321,107.720015 73.3081321,107.80448 C73.3081321,107.931179 72.6183301,108.8603 72.1115368,109.423403 C72.0411488,109.507869 71.689209,109.916119 71.3372692,110.324369 C69.4367943,112.576784 67.4236986,114.58988 65.6358444,116.025794 C65.2416718,116.335501 64.9038096,116.631131 64.8615768,116.687441 C64.8193441,116.729674 64.2140076,117.194234 63.5242056,117.715105 C62.820326,118.221898 62.1586792,118.728692 62.0319808,118.813157 C61.9193601,118.9117 61.6941186,119.052476 61.5392651,119.15102 C59.2023848,120.615089 58.2591862,121.164115 58.1324878,121.164115 C58.0480223,121.164115 57.9635567,121.220426 57.9354016,121.290814 C57.8931688,121.417512 54.5567795,123.050513 53.4587273,123.47284 C53.1067875,123.613616 52.6563045,123.810702 52.4451406,123.923323 C52.2480544,124.035944 51.9524249,124.12041 51.811649,124.12041 C51.6708731,124.12041 51.4878644,124.17672 51.4174764,124.23303 C51.2767005,124.359729 50.0378724,124.767979 48.5315701,125.190307 C48.1092423,125.317005 47.5461386,125.471858 47.292742,125.556324 C47.0252677,125.626712 46.4903192,125.75341 46.0961466,125.809721 C45.6878965,125.880109 45.012172,126.006807 44.5898443,126.091272 C42.8160677,126.429135 42.0136449,126.541755 40.1413252,126.668454 C36.0869787,126.950006 35.4816422,126.978161 35.3830991,126.80923 Z M39.803463,107.720015 C41.492774,107.522928 42.9990764,107.227299 43.2665506,107.058368 C43.3510162,107.002058 43.6888784,106.917592 43.9985854,106.861282 C44.32237,106.804971 44.5898443,106.720506 44.5898443,106.664195 C44.5898443,106.607885 44.8150857,106.509342 45.0966376,106.453031 C45.3781894,106.410799 45.7160516,106.312256 45.84275,106.241868 C45.9694483,106.17148 46.9548797,105.692841 48.0388543,105.157893 C49.1228289,104.637022 50.0378724,104.172462 50.0801052,104.130229 C50.2349587,103.975375 51.051459,103.426349 51.1359246,103.426349 C51.2063125,103.426349 51.3752437,103.299651 51.811649,102.919556 C51.9101921,102.83509 52.0791233,102.708392 52.2198992,102.638004 C53.1208651,102.131211 57.6820049,97.6263812 57.6820049,97.2322087 C57.6820049,97.1758983 57.7664704,97.0492 57.8790912,96.9647344 C58.1043327,96.7817257 59.99073,93.9802849 60.5397561,93.0089311 C60.9761614,92.2487411 62.3276103,89.5317658 62.3276103,89.4191451 C62.3276103,89.3628347 62.4543086,89.0390501 62.6232397,88.6730327 C63.0174123,87.7579892 63.1018778,87.5609029 63.4538176,86.6740146 C63.6086712,86.2516869 63.8057574,85.7730487 63.8761454,85.6181952 C63.9324558,85.4633417 64.1436197,84.9565484 64.3266283,84.4919879 C64.4955595,84.0274273 64.6926457,83.6332547 64.7630337,83.6050996 C65.0023528,83.4924788 64.8334217,82.760444 64.4392491,82.3099611 C64.2140076,82.0424868 64.0309989,81.7468574 64.0169213,81.6483143 C64.0169213,81.5638487 63.960611,81.4653056 63.9043006,81.4371504 C63.8339126,81.4230728 63.5382832,81.0429778 63.2426538,80.62065 C62.9470243,80.1983223 62.6513949,79.7900721 62.5810069,79.7056066 C62.0179032,79.0298821 61.9052825,78.8750286 61.9052825,78.8046407 C61.9052825,78.7624079 61.7645066,78.5653216 61.5955755,78.3682353 C61.4125668,78.171149 61.1028598,77.7628988 60.8916959,77.4531918 C60.680532,77.1434848 60.3426698,76.7070794 60.1455835,76.4677604 C59.9625748,76.2425189 59.7514109,75.9891222 59.6951006,75.9046567 C58.1043327,73.8774834 55.4718229,71.2590513 53.5291152,69.752749 C53.4587273,69.682361 53.1630978,69.4430419 52.8956236,69.2178005 C52.6281493,68.992559 52.3606751,68.7954727 52.3184423,68.7954727 C52.2762095,68.7954727 52.0791233,68.6687744 51.8961146,68.5139209 C51.7131059,68.3590674 51.501942,68.1901362 51.4174764,68.1197483 C51.3470885,68.0634379 51.1781574,67.9648948 51.0655366,67.9085844 C50.9529159,67.852274 50.671364,67.6833429 50.432045,67.5284894 C50.2068035,67.3736359 49.8407861,67.162472 49.6296222,67.0780065 C49.4043808,66.9794633 49.2354497,66.852765 49.2354497,66.7964546 C49.2354497,66.7401443 49.1509841,66.6838339 49.0383634,66.6838339 C48.9257426,66.6838339 48.7427339,66.5993683 48.6441908,66.5149028 C48.4471045,66.3178165 47.0393453,65.5998593 45.9272155,65.1352988 C45.5471205,64.9804453 45.1107152,64.783359 44.9840169,64.712971 C44.8432409,64.6285055 44.6320771,64.5721951 44.5053787,64.5721951 C44.3786804,64.5721951 44.083051,64.4877295 43.8437319,64.3751088 C43.3791714,64.1780225 42.4500503,63.9246259 40.6481185,63.4882205 C39.803463,63.2911342 38.9869626,63.2348238 36.6360048,63.2348238 C33.6656328,63.2348238 33.0884516,63.3052118 31.4272957,63.8964707 C31.2020542,63.9809362 30.8360368,64.0794794 30.624873,64.1076345 C30.3996315,64.1498673 30.2307004,64.2343329 30.2307004,64.3047208 C30.2307004,64.3751088 30.1603124,64.4314192 30.0758469,64.4314192 C29.9069158,64.4314192 28.6680877,65.0086004 28.5413893,65.1352988 C28.4991566,65.1775315 28.3302254,65.2760747 28.1753719,65.3464626 C27.0069318,65.8814111 24.6278187,68.2464466 23.4030682,70.0906112 C23.0511284,70.6114821 22.5161799,71.5687583 22.1923953,72.20225 C21.8826883,72.8498192 21.5729813,73.4692333 21.5025933,73.581854 C21.4462829,73.7085523 21.3477398,74.0041818 21.2914294,74.2575784 C21.2491966,74.5109751 21.1365759,74.7080614 21.0661879,74.7080614 C20.9958,74.7080614 20.9394896,74.8488373 20.9394896,75.031846 C20.9394896,75.2007771 20.8550241,75.5104841 20.7424033,75.7075704 C20.6438602,75.9046567 20.5171619,76.3129069 20.4467739,76.6226139 C20.3904635,76.9182433 20.305998,77.2279503 20.2637652,77.3124159 C20.0244461,77.6643557 19.4331873,80.9444347 19.1375578,83.4361684 C18.7433853,86.9414889 18.8841612,93.3327157 19.3909545,94.4870782 C19.4613424,94.6419317 19.5598856,94.9938715 19.6021184,95.2613458 C19.7006615,95.7962943 20.0103685,96.7676481 20.3200756,97.4715277 C20.4326963,97.7108468 20.5171619,98.0064762 20.5171619,98.1331746 C20.5171619,98.2598729 20.5734722,98.358416 20.6438602,98.358416 C20.7142481,98.358416 20.8127913,98.5555023 20.8691017,98.7807438 C20.925412,99.0200629 21.0098776,99.2030716 21.0802655,99.2030716 C21.1365759,99.2030716 21.235119,99.3579251 21.2773518,99.5409338 C21.4744381,100.329279 23.7127752,102.989944 25.1205345,104.116151 C26.3312074,105.073427 28.1612943,106.087014 29.7379847,106.664195 C30.2025452,106.847204 30.7093385,107.030213 30.864192,107.100601 C31.314675,107.283609 32.4831151,107.522928 33.6093225,107.663704 C34.1865037,107.74817 35.0452369,107.860791 35.5097974,107.931179 C36.4389185,108.057877 37.3398844,108.015644 39.803463,107.720015 Z" id="Shape" fill="url(#linearGradient-2)"></path><path d="M97.3830991,213.80923 C97.3127111,213.710686 96.7496074,213.654376 95.9190295,213.640298 C95.1729171,213.640298 94.2015633,213.569911 93.7792355,213.499523 C93.3569077,213.429135 92.6107954,213.316514 92.1321572,213.246126 C90.9214843,213.077195 89.3025612,212.711177 88.0074228,212.317005 C87.585095,212.204384 86.9797585,212.035453 86.6700515,211.950987 C86.3603445,211.866522 86.0506375,211.753901 85.9661719,211.669436 C85.8957839,211.599048 85.7268528,211.542737 85.6001545,211.542737 C85.4734562,211.542737 85.065206,211.416039 84.685111,211.247108 C84.305016,211.092254 83.8686107,210.909246 83.7137572,210.838858 C83.3899726,210.712159 80.5603766,209.318478 79.9972729,209.022848 C79.8001866,208.910228 79.6171779,208.769452 79.5890227,208.699064 C79.5608675,208.642753 79.4623244,208.586443 79.3778588,208.586443 C79.2230053,208.586443 76.2104006,206.61558 75.8725384,206.291795 C75.7739953,206.193252 75.3657451,205.869468 74.9856501,205.559761 C73.5638133,204.433553 70.9031484,201.7025 69.847329,200.294741 C69.6502427,200.041345 69.3827685,199.71756 69.2560701,199.604939 C69.1152942,199.478241 68.7633544,198.971448 68.4818026,198.478732 C68.1861731,197.986016 67.8483109,197.521456 67.707535,197.451068 C67.3837504,197.282137 66.8065691,196.282627 66.6235604,195.56467 C66.5390949,195.254963 66.1871551,194.438463 65.8352153,193.762738 C65.4832755,193.087014 65.2017236,192.439445 65.2017236,192.326824 C65.2017236,192.214203 65.1454132,192.11566 65.0750253,192.11566 C65.0046373,192.11566 64.8920166,191.918574 64.8497838,191.665177 C64.7934734,191.411781 64.6949303,191.116151 64.6245423,190.989453 C64.3148353,190.440427 63.6250333,188.173934 63.2308607,186.414235 C63.1463952,186.03414 63.0056193,185.51327 62.9352313,185.27395 C62.7803778,184.739002 62.5692139,183.359398 62.3721276,181.627854 C62.3017397,180.938052 62.1750413,179.755534 62.0905758,179.0235 C61.8512567,176.982249 62.118731,169.577435 62.5129035,167.282788 C62.6536795,166.409977 62.8789209,164.98814 63.0900848,163.46776 C63.1604728,163.0032 63.2730935,162.440096 63.3575591,162.228932 C63.4420246,162.003691 63.5124126,161.679906 63.5124126,161.496897 C63.5124126,161.327966 63.6109557,160.835251 63.737654,160.427 C63.8502748,160.004673 64.0332835,159.357103 64.1459042,158.962931 C64.5963872,157.400318 65.3988099,155.021205 65.5114306,154.978972 C65.567741,154.950817 65.6240514,154.795964 65.6240514,154.64111 C65.6240514,154.486257 65.7085169,154.190627 65.8211377,153.993541 C66.2153102,153.205196 66.6094828,152.30423 66.6094828,152.149376 C66.6094828,152.064911 66.6798708,151.994523 66.7502587,151.994523 C66.8347243,151.994523 66.8910347,151.89598 66.8910347,151.783359 C66.8910347,151.60035 67.8342333,149.643565 68.017242,149.460556 C68.0594748,149.418324 68.2284059,149.108616 68.4114146,148.756677 C68.777432,148.038719 68.8618976,147.897944 69.6361651,146.729503 C70.2978119,145.744072 70.8749932,144.913494 70.9735364,144.814951 C71.0157691,144.772718 71.297321,144.434856 71.607028,144.040683 C71.916735,143.660588 72.29683,143.18195 72.4516835,142.984864 C72.8317785,142.534381 75.5909866,139.761095 76.1118575,139.338768 C77.2099096,138.423724 78.8429103,137.213051 78.9836862,137.213051 C79.0681518,137.213051 79.1385398,137.142663 79.1385398,137.072275 C79.1385398,136.98781 79.2793157,136.861111 79.4623244,136.790723 C79.8001866,136.63587 80.2929023,136.34024 80.405523,136.213542 C80.7433853,135.833447 84.8258869,133.834429 85.2622923,133.834429 C85.3608354,133.834429 85.4734562,133.778119 85.5016114,133.721808 C85.5579217,133.581032 88.5705264,132.567446 88.9506214,132.567446 C89.0913973,132.567446 89.274406,132.511135 89.3588716,132.440747 C89.4292596,132.356282 89.8375097,132.229584 90.2598375,132.159196 C90.6821652,132.07473 91.4142,131.948032 91.8787606,131.863566 C92.3433211,131.779101 93.0753559,131.624247 93.4976837,131.539782 C94.5675807,131.31454 102.718506,131.31454 103.774326,131.539782 C104.196654,131.638325 104.956844,131.779101 105.463637,131.863566 C107.378189,132.159196 108.067991,132.299972 108.279155,132.412592 C108.405854,132.48298 108.785949,132.581523 109.123811,132.637834 C109.475751,132.694144 109.82769,132.792687 109.898078,132.848998 C109.982544,132.905308 110.306329,133.003851 110.630113,133.060162 C110.967975,133.116472 111.263605,133.215015 111.319915,133.285403 C111.362148,133.355791 111.531079,133.412101 111.70001,133.412101 C111.868941,133.412101 112.192726,133.510644 112.417967,133.623265 C112.629131,133.735886 112.882528,133.834429 112.952916,133.834429 C113.037381,133.834429 113.290778,133.918895 113.530097,134.031515 C113.783494,134.130059 114.262132,134.327145 114.614072,134.467921 C115.90921,134.960636 119.147056,136.495094 119.259677,136.664025 C119.30191,136.720335 119.513074,136.818879 119.724238,136.861111 C119.935402,136.917422 120.104333,137.015965 120.104333,137.086353 C120.104333,137.156741 120.188798,137.213051 120.301419,137.213051 C120.41404,137.213051 120.597048,137.297517 120.695592,137.381982 C120.991221,137.649457 121.399471,137.902853 121.835876,138.099939 C122.04704,138.184405 122.215971,138.311103 122.215971,138.367414 C122.215971,138.423724 122.286359,138.480034 122.356747,138.480034 C122.525678,138.480034 123.384412,139.057216 123.4548,139.226147 C123.482955,139.282457 123.56742,139.32469 123.637808,139.32469 C123.792662,139.32469 124.651395,139.915949 124.721783,140.070802 C124.749938,140.127113 124.834404,140.169346 124.904792,140.169346 C125.059645,140.169346 126.354784,141.140699 126.411094,141.30963 C126.439249,141.380018 126.537792,141.436329 126.622258,141.436329 C126.720801,141.436329 127.01643,141.647493 127.297982,141.900889 C127.579534,142.140208 128.114483,142.604769 128.494578,142.914476 C130.395052,144.477089 134.885804,148.967841 134.885804,149.305703 C134.885804,149.376091 134.97027,149.460556 135.082891,149.502789 C135.209589,149.559099 135.350365,149.376091 135.519296,148.995996 C135.645994,148.672211 135.843081,148.221728 135.941624,147.982409 C136.13871,147.531926 136.378029,146.9829 136.786279,145.941158 C137.293073,144.688253 137.574624,144.040683 137.687245,143.829519 C137.757633,143.702821 137.856176,143.407192 137.912487,143.153795 C137.954719,142.900398 138.06734,142.703312 138.137728,142.703312 C138.208116,142.703312 138.264426,142.618847 138.264426,142.506226 C138.264426,142.407683 138.391125,142.01351 138.560056,141.633415 C138.714909,141.25332 138.940151,140.718372 139.052772,140.450897 C139.165392,140.183423 139.320246,139.845561 139.390634,139.718863 C139.475099,139.578087 139.53141,139.395078 139.53141,139.32469 C139.53141,139.240224 139.658108,138.874207 139.827039,138.50819 C140.221212,137.593146 140.305677,137.39606 140.657617,136.509172 C140.812471,136.086844 141.009557,135.608206 141.079945,135.453352 C141.136255,135.298499 141.333341,134.819861 141.502273,134.397533 C141.826057,133.552877 141.840135,133.524722 142.473626,132.102885 C142.712946,131.567937 142.910032,131.089299 142.910032,131.032988 C142.910032,130.9626 143.03673,130.610661 143.205661,130.230566 C143.642067,129.188824 143.895463,128.597565 144.064394,128.203392 C144.134782,128.006306 144.289636,127.668444 144.402257,127.429125 C144.5008,127.203883 144.627498,126.837866 144.683808,126.626702 C144.726041,126.40146 144.824584,126.232529 144.894972,126.232529 C144.96536,126.232529 145.021671,126.105831 145.021671,125.9369 C145.021671,125.782046 145.120214,125.472339 145.232834,125.275253 C145.331378,125.064089 145.66924,124.289822 145.950792,123.557787 C146.232344,122.825752 146.513895,122.121872 146.570206,122.009252 C146.640594,121.896631 146.795447,121.516536 146.922146,121.164596 C147.048844,120.812656 147.24593,120.348096 147.344473,120.108777 C147.54156,119.658294 147.780879,119.109268 148.189129,118.067526 C148.695922,116.81462 148.977474,116.167051 149.090095,115.955887 C149.160483,115.829189 149.259026,115.533559 149.315336,115.280163 C149.357569,115.026766 149.47019,114.82968 149.540578,114.82968 C149.610966,114.82968 149.667276,114.731137 149.667276,114.618516 C149.667276,114.505895 149.765819,114.182111 149.892517,113.886481 C150.357078,112.788429 150.483776,112.4928 150.723095,111.873385 C150.849794,111.521446 151.04688,111.056885 151.145423,110.817566 C151.243966,110.592325 151.426975,110.113686 151.567751,109.761747 C151.694449,109.409807 151.891536,108.945246 151.990079,108.705927 C152.285708,108.04428 152.56726,107.368556 152.9192,106.453513 C153.102208,105.988952 153.299295,105.594779 153.369683,105.566624 C153.425993,105.538469 153.468226,105.425848 153.468226,105.29915 C153.468226,105.102064 153.665312,104.609348 154.101717,103.637994 C154.214338,103.412753 154.43958,102.863727 154.594433,102.441399 C154.763364,102.019071 154.988606,101.44189 155.101227,101.174416 C155.396856,100.498691 155.509477,100.245294 155.861416,99.3443285 C156.01627,98.9220008 156.213356,98.4433626 156.283744,98.2885091 C156.340055,98.1336556 156.537141,97.6550175 156.706072,97.2326897 C156.860926,96.810362 157.058012,96.3317238 157.1284,96.1768703 C157.18471,96.0220168 157.395874,95.5152235 157.578883,95.050663 C157.747814,94.5861024 157.9449,94.1778523 158.015288,94.1637747 C158.071598,94.1356195 158.113831,94.0229987 158.113831,93.8963004 C158.113831,93.7836797 158.212374,93.4598951 158.339073,93.1783432 C158.972564,91.7142736 159.127418,91.3764114 159.254116,91.15117 C159.324504,91.010394 159.380815,90.8273853 159.380815,90.7569974 C159.380815,90.6725318 159.507513,90.3065144 159.676444,89.940497 C159.831297,89.5744796 160.028384,89.1239967 160.098772,88.9269104 C160.183237,88.7298241 160.338091,88.3919619 160.450712,88.180798 C160.563332,87.9555566 160.647798,87.7021599 160.647798,87.6036168 C160.647798,87.5050736 160.732263,87.3220649 160.830806,87.181289 C160.999738,86.9419699 161.04197,86.9419699 161.562841,87.1672114 C162.632738,87.6317719 162.9706,87.7725479 163.604092,88.0118669 C163.956032,88.1385653 164.43467,88.3356515 164.659912,88.4341947 C164.899231,88.5327378 165.363791,88.7157465 165.715731,88.8565225 C166.067671,88.9832208 166.546309,89.1803071 166.77155,89.2788502 C167.222033,89.4759365 167.771059,89.7152556 168.812801,90.1235057 C170.065707,90.6302991 170.713276,90.9118509 170.92444,91.0244716 C171.051138,91.0948596 171.346768,91.1934027 171.600164,91.2497131 C171.853561,91.2919459 172.050647,91.4045666 172.050647,91.4749546 C172.050647,91.5453425 172.135113,91.6016529 172.247734,91.6016529 C172.416665,91.6016529 173.176855,91.8972823 174.091898,92.3055325 C174.246752,92.3759205 174.72539,92.5730068 175.147718,92.7278603 C176.062761,93.0798001 176.808873,93.3895071 177.146736,93.5725158 C177.287512,93.6569813 177.484598,93.7132917 177.583141,93.7132917 C177.681684,93.7132917 177.892848,93.8118349 178.061779,93.9244556 L178.371486,94.1356195 L178.089934,94.8113439 C177.935081,95.1773613 177.752072,95.599689 177.681684,95.7545426 C177.611296,95.9093961 177.329744,96.6132757 177.048193,97.3030777 C176.766641,98.0069573 176.485089,98.6967593 176.428778,98.8516128 C176.358391,99.0064663 176.189459,99.4147165 176.048684,99.7666563 C175.584123,100.935096 175.274416,101.667131 175.161795,101.878295 C175.091407,102.004993 174.992864,102.300623 174.936554,102.55402 C174.894321,102.807416 174.7817,103.004502 174.711312,103.004502 C174.640924,103.004502 174.584614,103.117123 174.584614,103.257899 C174.584614,103.398675 174.500148,103.623917 174.387528,103.77877 C174.288985,103.933624 174.148209,104.285563 174.091898,104.553038 C174.035588,104.820512 173.937045,105.073909 173.894812,105.116141 C173.754036,105.214684 173.317631,106.186038 173.317631,106.383125 C173.317631,106.46759 173.134622,106.918073 172.895303,107.396711 C172.670061,107.861272 172.472975,108.325832 172.472975,108.424375 C172.472975,108.522919 172.346277,108.903014 172.177346,109.283109 C172.022492,109.663204 171.839483,110.099609 171.769096,110.254462 C171.712785,110.409316 171.501621,110.916109 171.318613,111.38067 C171.149681,111.84523 170.952595,112.25348 170.896285,112.267558 C170.825897,112.295713 170.783664,112.408334 170.783664,112.535032 C170.783664,112.647653 170.685121,112.971438 170.558423,113.252989 C170.445802,113.548619 170.248716,113.999102 170.122017,114.266576 C170.009397,114.53405 169.826388,114.942301 169.713767,115.153464 C169.601146,115.378706 169.516681,115.618025 169.516681,115.688413 C169.516681,115.772878 169.389982,116.124818 169.221051,116.490836 C169.066198,116.856853 168.869112,117.307336 168.784646,117.504422 C168.714258,117.701509 168.559405,118.053448 168.446784,118.27869 C168.348241,118.518009 168.221542,118.869949 168.165232,119.09519 C168.122999,119.306354 168.024456,119.475285 167.954068,119.475285 C167.88368,119.475285 167.82737,119.573828 167.82737,119.700527 C167.82737,119.827225 167.728827,120.15101 167.602128,120.432561 C167.489508,120.728191 167.306499,121.150519 167.207956,121.37576 C167.095335,121.615079 166.912326,122.07964 166.77155,122.43158 C166.644852,122.783519 166.447766,123.262157 166.349223,123.487399 C166.250679,123.726718 166.067671,124.191279 165.926895,124.543218 C165.800196,124.895158 165.60311,125.373796 165.504567,125.599038 C165.208938,126.260685 164.927386,126.936409 164.575446,127.851452 C164.392437,128.316013 164.195351,128.724263 164.139041,128.738341 C164.068653,128.766496 164.02642,128.893194 164.02642,129.019893 C164.02642,129.160669 163.941954,129.428143 163.829334,129.639307 C163.716713,129.850471 163.590015,130.20241 163.533704,130.441729 C163.477394,130.681048 163.378851,130.878135 163.308463,130.878135 C163.238075,130.878135 163.181764,130.9626 163.181764,131.075221 C163.181764,131.244152 162.984678,131.750945 162.407497,133.060162 C162.308954,133.299481 162.125945,133.778119 161.999247,134.144136 C161.872548,134.510154 161.717695,134.932481 161.647307,135.05918 C161.576919,135.199956 161.407988,135.594128 161.281289,135.946068 C161.140514,136.298008 160.901194,136.861111 160.760419,137.213051 C160.394401,138.043629 160.309936,138.254793 159.915763,139.254302 C159.746832,139.718863 159.549746,140.127113 159.493435,140.14119 C159.423047,140.169346 159.380815,140.281966 159.380815,140.408665 C159.380815,140.521285 159.282271,140.84507 159.155573,141.126622 C158.522081,142.590691 158.367228,142.928554 158.24053,143.153795 C158.170142,143.294571 158.113831,143.47758 158.113831,143.547968 C158.113831,143.632433 157.987133,143.998451 157.818202,144.364468 C157.424029,145.279511 157.339564,145.476598 156.987624,146.363486 C156.83277,146.785814 156.635684,147.264452 156.565296,147.419305 C156.508986,147.574159 156.311899,148.052797 156.142968,148.475125 C155.791029,149.376091 155.622097,149.784341 155.354623,150.3756 C155.25608,150.614919 155.129382,150.966859 155.073071,151.1921 C155.030839,151.403264 154.932295,151.572195 154.861907,151.572195 C154.791519,151.572195 154.735209,151.670738 154.735209,151.783359 C154.735209,151.89598 154.636666,152.219764 154.509968,152.515394 C154.383269,152.811023 154.158028,153.331894 154.003174,153.683834 C153.848321,154.035774 153.67939,154.429946 153.594924,154.556645 C153.524536,154.697421 153.468226,154.880429 153.468226,154.978972 C153.454148,155.077516 153.341528,155.415378 153.186674,155.725085 C153.03182,156.034792 152.9192,156.372654 152.905122,156.471197 C152.905122,156.555663 152.848812,156.640128 152.764346,156.640128 C152.693958,156.640128 152.62357,156.780904 152.62357,156.963913 C152.62357,157.132844 152.539105,157.400318 152.426484,157.555172 C152.327941,157.710025 152.187165,158.047887 152.130855,158.301284 C152.088622,158.540603 151.990079,158.751767 151.947846,158.751767 C151.891536,158.751767 151.764837,159.019241 151.666294,159.357103 C151.497363,159.877974 150.835716,161.553208 150.314845,162.763881 C150.202224,163.0032 150.005138,163.46776 149.864362,163.8197 C149.737664,164.17164 149.498345,164.734744 149.357569,165.086683 C149.202715,165.438623 149.019707,165.875029 148.949319,166.072115 C148.864853,166.269201 148.71,166.607063 148.597379,166.832305 C148.41437,167.184245 148.41437,167.26871 148.611457,167.479874 C148.724077,167.606572 148.82262,167.775504 148.82262,167.859969 C148.82262,167.944435 148.921164,168.042978 149.033784,168.099288 C149.146405,168.141521 149.244948,168.254142 149.244948,168.366762 C149.244948,168.465306 149.442035,168.73278 149.667276,168.958021 C149.906595,169.183263 150.089604,169.436659 150.089604,169.535203 C150.089604,169.633746 150.145914,169.732289 150.216302,169.760444 C150.385233,169.816754 151.356587,171.111893 151.356587,171.280824 C151.356587,171.36529 151.412897,171.4216 151.483285,171.4216 C151.553673,171.4216 151.80707,171.717229 152.032311,172.097324 C152.257553,172.463342 152.581338,172.913825 152.750269,173.110911 C153.144441,173.589549 153.228907,173.688092 153.482303,174.096342 C153.609002,174.293429 153.834243,174.589058 153.975019,174.757989 C154.129873,174.912843 154.341037,175.194395 154.453657,175.363326 C154.650744,175.644878 155.058994,176.207981 155.340546,176.559921 C156.114813,177.545352 157.269176,179.178353 157.269176,179.290974 C157.269176,179.361362 157.325486,179.445827 157.395874,179.473983 C157.564805,179.530293 158.536159,180.825431 158.536159,180.980285 C158.536159,181.050673 158.592469,181.135138 158.662857,181.163294 C158.831788,181.219604 159.803142,182.514742 159.803142,182.683674 C159.803142,182.768139 159.859453,182.824449 159.943918,182.824449 C160.014306,182.824449 160.239548,183.106001 160.450712,183.457941 C160.647798,183.809881 160.873039,184.091433 160.943427,184.091433 C161.013815,184.091433 161.070126,184.175898 161.070126,184.288519 C161.070126,184.40114 161.126436,184.513761 161.182746,184.541916 C161.253134,184.570071 161.548764,184.936088 161.844393,185.358416 C162.140023,185.780744 162.435652,186.188994 162.50604,186.27346 C162.56235,186.343847 162.85798,186.73802 163.139532,187.118115 C163.435161,187.512288 163.716713,187.892383 163.773023,187.962771 C164.153118,188.427331 166.166214,191.172462 166.560386,191.76372 C166.813783,192.157893 167.151645,192.594298 167.278344,192.749152 C167.996301,193.551575 168.672025,194.452541 168.672025,194.607394 C168.672025,194.705937 168.728336,194.790403 168.798724,194.790403 C168.869112,194.790403 168.967655,194.903023 169.009887,195.043799 C169.066198,195.170498 169.291439,195.50836 169.516681,195.775834 C170.037552,196.381171 170.093862,196.465636 170.375414,196.902042 C170.502112,197.099128 170.741431,197.408835 170.910362,197.605921 C171.318613,198.098637 171.389001,198.19718 171.670552,198.633585 C171.923949,199.01368 171.909871,199.027758 171.529776,199.36562 C171.318613,199.548629 171.065216,199.71756 170.966673,199.71756 C170.882207,199.71756 170.783664,199.77387 170.755509,199.844258 C170.699199,200.013189 169.40406,200.984543 169.235129,200.984543 C169.150663,200.984543 169.094353,201.040854 169.094353,201.125319 C169.094353,201.195707 168.812801,201.420949 168.460861,201.632112 C168.108922,201.829199 167.82737,202.05444 167.82737,202.124828 C167.82737,202.195216 167.756982,202.251527 167.686594,202.251527 C167.602128,202.251527 167.461352,202.321914 167.362809,202.392302 C166.743395,202.913173 166.504076,203.096182 166.433688,203.096182 C166.391455,203.096182 166.194369,203.236958 165.997283,203.419967 C165.800196,203.588898 165.420102,203.884527 165.13855,204.081613 C164.856998,204.2787 164.448748,204.574329 164.223506,204.757338 C162.85798,205.813157 161.3376,206.897132 161.224979,206.897132 C161.154591,206.897132 161.070126,206.953442 161.04197,207.02383 C160.98566,207.192761 159.690522,208.164115 159.52159,208.164115 C159.437125,208.164115 159.380815,208.220426 159.380815,208.290814 C159.380815,208.361201 159.071107,208.614598 158.691012,208.867995 C158.29684,209.107314 157.775969,209.487409 157.522572,209.71265 C157.269176,209.951969 156.987624,210.134978 156.903158,210.134978 C156.72015,210.134978 155.157537,208.121882 155.157537,207.882563 C155.157537,207.812175 155.101227,207.741787 155.016761,207.741787 C154.946373,207.741787 154.721132,207.460236 154.509968,207.108296 C154.312881,206.756356 154.101717,206.474804 154.045407,206.474804 C153.989097,206.474804 153.806088,206.235485 153.651235,205.939856 C153.482303,205.658304 153.186674,205.264131 152.989588,205.081123 C152.792501,204.884036 152.62357,204.672872 152.62357,204.588407 C152.62357,204.503941 152.342018,204.123846 151.990079,203.729674 C151.652216,203.349579 151.356587,202.941329 151.356587,202.856863 C151.356587,202.75832 151.300277,202.673854 151.243966,202.673854 C151.187656,202.673854 150.962414,202.40638 150.751251,202.082595 C150.540087,201.744733 150.23038,201.308328 150.061449,201.097164 C149.87844,200.900078 149.639121,200.590371 149.5265,200.42144 C149.329414,200.12581 148.893008,199.534551 148.639612,199.224844 C147.907577,198.309801 145.443998,194.888946 145.443998,194.790403 C145.443998,194.734092 145.387688,194.649627 145.3173,194.621472 C145.148369,194.565161 144.177015,193.270023 144.177015,193.101092 C144.177015,193.016626 144.120705,192.960316 144.064394,192.960316 C144.008084,192.960316 143.768765,192.678764 143.557601,192.326824 C143.33236,191.974884 143.09304,191.693332 143.03673,191.693332 C142.966342,191.693332 142.910032,191.594789 142.910032,191.482169 C142.910032,191.369548 142.853721,191.271005 142.797411,191.271005 C142.741101,191.271005 142.501782,190.989453 142.290618,190.637513 C142.065376,190.285573 141.826057,190.004021 141.769747,190.004021 C141.699359,190.004021 141.643049,189.933633 141.643049,189.849168 C141.643049,189.764702 141.558583,189.609849 141.474117,189.511306 C141.192566,189.201599 141.037712,188.990435 140.657617,188.427331 C140.460531,188.131702 140.263444,187.892383 140.207134,187.892383 C140.136746,187.892383 140.094513,187.779762 140.094513,187.653064 C140.080436,187.427822 140.066358,187.427822 139.869272,187.681219 C139.742574,187.836072 139.58772,188.131702 139.503255,188.356943 C139.432867,188.568107 139.306168,188.737038 139.23578,188.737038 C139.165392,188.737038 139.109082,188.807426 139.109082,188.891892 C139.109082,189.088978 138.109573,190.764211 137.954719,190.820522 C137.898409,190.848677 137.842099,190.94722 137.842099,191.017608 C137.842099,191.228772 135.561529,194.649627 135.420753,194.649627 C135.364442,194.649627 135.308132,194.720015 135.308132,194.80448 C135.308132,194.931179 134.61833,195.8603 134.111537,196.423403 C134.041149,196.507869 133.689209,196.916119 133.337269,197.324369 C131.436794,199.576784 129.423699,201.58988 127.635844,203.025794 C127.241672,203.335501 126.90381,203.631131 126.861577,203.687441 C126.819344,203.729674 126.214008,204.194234 125.524206,204.715105 C124.820326,205.221898 124.158679,205.728692 124.031981,205.813157 C123.91936,205.9117 123.694119,206.052476 123.539265,206.15102 C121.202385,207.615089 120.259186,208.164115 120.132488,208.164115 C120.048022,208.164115 119.963557,208.220426 119.935402,208.290814 C119.893169,208.417512 116.556779,210.050513 115.458727,210.47284 C115.106787,210.613616 114.656305,210.810702 114.445141,210.923323 C114.248054,211.035944 113.952425,211.12041 113.811649,211.12041 C113.670873,211.12041 113.487864,211.17672 113.417476,211.23303 C113.276701,211.359729 112.037872,211.767979 110.53157,212.190307 C110.109242,212.317005 109.546139,212.471858 109.292742,212.556324 C109.025268,212.626712 108.490319,212.75341 108.096147,212.809721 C107.687896,212.880109 107.012172,213.006807 106.589844,213.091272 C104.816068,213.429135 104.013645,213.541755 102.141325,213.668454 C98.0869787,213.950006 97.4816422,213.978161 97.3830991,213.80923 Z M101.803463,194.720015 C103.492774,194.522928 104.999076,194.227299 105.266551,194.058368 C105.351016,194.002058 105.688878,193.917592 105.998585,193.861282 C106.32237,193.804971 106.589844,193.720506 106.589844,193.664195 C106.589844,193.607885 106.815086,193.509342 107.096638,193.453031 C107.378189,193.410799 107.716052,193.312256 107.84275,193.241868 C107.969448,193.17148 108.95488,192.692841 110.038854,192.157893 C111.122829,191.637022 112.037872,191.172462 112.080105,191.130229 C112.234959,190.975375 113.051459,190.426349 113.135925,190.426349 C113.206313,190.426349 113.375244,190.299651 113.811649,189.919556 C113.910192,189.83509 114.079123,189.708392 114.219899,189.638004 C115.120865,189.131211 119.682005,184.626381 119.682005,184.232209 C119.682005,184.175898 119.76647,184.0492 119.879091,183.964734 C120.104333,183.781726 121.99073,180.980285 122.539756,180.008931 C122.976161,179.248741 124.32761,176.531766 124.32761,176.419145 C124.32761,176.362835 124.454309,176.03905 124.62324,175.673033 C125.017412,174.757989 125.101878,174.560903 125.453818,173.674015 C125.608671,173.251687 125.805757,172.773049 125.876145,172.618195 C125.932456,172.463342 126.14362,171.956548 126.326628,171.491988 C126.495559,171.027427 126.692646,170.633255 126.763034,170.6051 C127.002353,170.492479 126.833422,169.760444 126.439249,169.309961 C126.214008,169.042487 126.030999,168.746857 126.016921,168.648314 C126.016921,168.563849 125.960611,168.465306 125.904301,168.43715 C125.833913,168.423073 125.538283,168.042978 125.242654,167.62065 C124.947024,167.198322 124.651395,166.790072 124.581007,166.705607 C124.017903,166.029882 123.905283,165.875029 123.905283,165.804641 C123.905283,165.762408 123.764507,165.565322 123.595575,165.368235 C123.412567,165.171149 123.10286,164.762899 122.891696,164.453192 C122.680532,164.143485 122.34267,163.707079 122.145584,163.46776 C121.962575,163.242519 121.751411,162.989122 121.695101,162.904657 C120.104333,160.877483 117.471823,158.259051 115.529115,156.752749 C115.458727,156.682361 115.163098,156.443042 114.895624,156.2178 C114.628149,155.992559 114.360675,155.795473 114.318442,155.795473 C114.27621,155.795473 114.079123,155.668774 113.896115,155.513921 C113.713106,155.359067 113.501942,155.190136 113.417476,155.119748 C113.347088,155.063438 113.178157,154.964895 113.065537,154.908584 C112.952916,154.852274 112.671364,154.683343 112.432045,154.528489 C112.206804,154.373636 111.840786,154.162472 111.629622,154.078006 C111.404381,153.979463 111.23545,153.852765 111.23545,153.796455 C111.23545,153.740144 111.150984,153.683834 111.038363,153.683834 C110.925743,153.683834 110.742734,153.599368 110.644191,153.514903 C110.447105,153.317817 109.039345,152.599859 107.927216,152.135299 C107.547121,151.980445 107.110715,151.783359 106.984017,151.712971 C106.843241,151.628505 106.632077,151.572195 106.505379,151.572195 C106.37868,151.572195 106.083051,151.48773 105.843732,151.375109 C105.379171,151.178023 104.45005,150.924626 102.648118,150.48822 C101.803463,150.291134 100.986963,150.234824 98.6360048,150.234824 C95.6656328,150.234824 95.0884516,150.305212 93.4272957,150.896471 C93.2020542,150.980936 92.8360368,151.079479 92.624873,151.107635 C92.3996315,151.149867 92.2307004,151.234333 92.2307004,151.304721 C92.2307004,151.375109 92.1603124,151.431419 92.0758469,151.431419 C91.9069158,151.431419 90.6680877,152.0086 90.5413893,152.135299 C90.4991566,152.177532 90.3302254,152.276075 90.1753719,152.346463 C89.0069318,152.881411 86.6278187,155.246447 85.4030682,157.090611 C85.0511284,157.611482 84.5161799,158.568758 84.1923953,159.20225 C83.8826883,159.849819 83.5729813,160.469233 83.5025933,160.581854 C83.4462829,160.708552 83.3477398,161.004182 83.2914294,161.257578 C83.2491966,161.510975 83.1365759,161.708061 83.0661879,161.708061 C82.9958,161.708061 82.9394896,161.848837 82.9394896,162.031846 C82.9394896,162.200777 82.8550241,162.510484 82.7424033,162.70757 C82.6438602,162.904657 82.5171619,163.312907 82.4467739,163.622614 C82.3904635,163.918243 82.305998,164.22795 82.2637652,164.312416 C82.0244461,164.664356 81.4331873,167.944435 81.1375578,170.436168 C80.7433853,173.941489 80.8841612,180.332716 81.3909545,181.487078 C81.4613424,181.641932 81.5598856,181.993872 81.6021184,182.261346 C81.7006615,182.796294 82.0103685,183.767648 82.3200756,184.471528 C82.4326963,184.710847 82.5171619,185.006476 82.5171619,185.133175 C82.5171619,185.259873 82.5734722,185.358416 82.6438602,185.358416 C82.7142481,185.358416 82.8127913,185.555502 82.8691017,185.780744 C82.925412,186.020063 83.0098776,186.203072 83.0802655,186.203072 C83.1365759,186.203072 83.235119,186.357925 83.2773518,186.540934 C83.4744381,187.329279 85.7127752,189.989944 87.1205345,191.116151 C88.3312074,192.073427 90.1612943,193.087014 91.7379847,193.664195 C92.2025452,193.847204 92.7093385,194.030213 92.864192,194.100601 C93.314675,194.283609 94.4831151,194.522928 95.6093225,194.663704 C96.1865037,194.74817 97.0452369,194.860791 97.5097974,194.931179 C98.4389185,195.057877 99.3398844,195.015644 101.803463,194.720015 Z" id="Shape-Copy" fill="url(#linearGradient-3)"></path><path d="M200.188714,174.840058 L196.504,174.840058 L196.504,208.05228 L200.188714,208.05228 L200.188714,191.81962 L217.21807,191.81962 L217.21807,208.05228 L220.902784,208.05228 L220.902784,174.840058 L217.21807,174.840058 L217.21807,188.334079 L200.188714,188.334079 L200.188714,174.840058 Z M251.675128,208.05228 L255.75819,208.05228 L240.869952,173.246668 L225.583367,208.05228 L229.666429,208.05228 L233.649904,198.691114 L247.79124,198.691114 L251.675128,208.05228 Z M235.093913,195.205574 L240.770365,181.910726 L246.34723,195.205574 L235.093913,195.205574 Z M277.567715,208.05228 L281.252429,208.05228 L281.252429,174.840058 L277.567715,174.840058 L277.567715,190.325817 C275.974325,190.475197 273.73362,190.674371 270.895394,190.674371 C268.306136,190.674371 266.314398,190.52499 265.119356,189.628709 C263.127618,188.184699 263.127618,185.44606 263.127618,184.151431 L263.127618,174.840058 L259.442904,174.840058 L259.442904,184.649365 C259.442904,186.89007 259.691871,190.22623 262.480303,192.367348 C264.073693,193.612184 266.563365,194.159911 270.69622,194.159911 C272.438991,194.159911 275.575977,193.960738 277.567715,193.811357 L277.567715,208.05228 Z M293.501614,174.840058 L289.8169,174.840058 L289.8169,208.05228 L293.501614,208.05228 L293.501614,191.81962 L310.53097,191.81962 L310.53097,208.05228 L314.215684,208.05228 L314.215684,174.840058 L310.53097,174.840058 L310.53097,188.334079 L293.501614,188.334079 L293.501614,174.840058 Z M345.88431,208.05228 L349.569024,208.05228 L349.569024,173.445842 L326.464869,200.284504 L326.464869,174.840058 L322.780155,174.840058 L322.780155,209.546083 L345.88431,182.707421 L345.88431,208.05228 Z M395.130018,177.578697 C391.146544,174.541297 387.312449,174.29233 385.320711,174.29233 C375.362024,174.29233 367.942802,181.661759 367.942802,191.570653 C367.942802,201.180786 375.262437,208.649801 385.121538,208.649801 C387.61121,208.649801 391.445304,208.05228 395.130018,205.413228 L395.130018,200.832232 C394.532497,201.429753 393.188074,202.674589 391.295924,203.620664 C389.553154,204.516946 387.362242,205.164261 385.121538,205.164261 C379.046738,205.164261 371.727103,200.633058 371.727103,191.620446 C371.727103,183.952257 377.403555,177.777871 385.071744,177.777871 C387.013688,177.777871 389.055219,178.275805 390.797989,179.0725 C392.490966,179.869195 394.084356,181.114031 395.130018,182.159693 L395.130018,177.578697 Z M419.130455,174.840058 L401.901926,174.840058 L401.901926,208.05228 L419.130455,208.05228 L419.130455,204.56674 L405.58664,204.56674 L405.58664,191.67024 L418.732107,191.67024 L418.732107,188.184699 L405.58664,188.184699 L405.58664,178.325599 L419.130455,178.325599 L419.130455,174.840058 Z M449.006517,208.05228 L452.691231,208.05228 L452.691231,173.445842 L429.587077,200.284504 L429.587077,174.840058 L425.902362,174.840058 L425.902362,209.546083 L449.006517,182.707421 L449.006517,208.05228 Z M431.578814,167.321249 C431.877575,168.167737 433.620345,172.151212 439.296797,172.151212 C444.973248,172.151212 446.716019,168.167737 447.014779,167.321249 L443.529239,166.176 C442.732544,168.914639 439.695144,168.964432 439.296797,168.964432 C438.898449,168.964432 435.86105,168.914639 435.064355,166.176 L431.578814,167.321249 Z M478.384644,208.05228 L482.069359,208.05228 L482.069359,174.840058 L478.384644,174.840058 L478.384644,190.325817 C476.791254,190.475197 474.55055,190.674371 471.712324,190.674371 C469.123065,190.674371 467.131328,190.52499 465.936285,189.628709 C463.944548,188.184699 463.944548,185.44606 463.944548,184.151431 L463.944548,174.840058 L460.259833,174.840058 L460.259833,184.649365 C460.259833,186.89007 460.508801,190.22623 463.297233,192.367348 C464.890623,193.612184 467.380295,194.159911 471.51315,194.159911 C473.25592,194.159911 476.392907,193.960738 478.384644,193.811357 L478.384644,208.05228 Z M512.841703,208.05228 L516.924764,208.05228 L502.036527,173.246668 L486.749942,208.05228 L490.833004,208.05228 L494.816478,198.691114 L508.957814,198.691114 L512.841703,208.05228 Z M496.260488,195.205574 L501.93694,181.910726 L507.513805,195.205574 L496.260488,195.205574 Z M547,177.578697 C543.016525,174.541297 539.18243,174.29233 537.190693,174.29233 C527.232006,174.29233 519.812784,181.661759 519.812784,191.570653 C519.812784,201.180786 527.132419,208.649801 536.991519,208.649801 C539.481191,208.649801 543.315286,208.05228 547,205.413228 L547,200.832232 C546.402479,201.429753 545.058056,202.674589 543.165905,203.620664 C541.423135,204.516946 539.232224,205.164261 536.991519,205.164261 C530.91672,205.164261 523.597085,200.633058 523.597085,191.620446 C523.597085,183.952257 529.273537,177.777871 536.941726,177.777871 C538.88367,177.777871 540.925201,178.275805 542.667971,179.0725 C544.360948,179.869195 545.954338,181.114031 547,182.159693 L547,177.578697 Z" id="НАЧНИ-СЕЙЧАС-Copy" fill="#FFFFFF"></path></g></g></g></svg> 