<?xml version="1.0" encoding="UTF-8" standalone="no"?> <svg xmlns="http://www.w3.org/2000/svg" xmlns:xlink="http://www.w3.org/1999/xlink" width="1057px" height="131px" viewBox="0 0 1057 131"><!-- Generator: Sketch 41.2 (35397) - http://www.bohemiancoding.com/sketch --><title>logo_alpha copy</title><desc>Created with Sketch.</desc><defs><linearGradient x1="50%" y1="0%" x2="50%" y2="100%" id="linearGradient-1"><stop stop-color="#09D9D5" offset="0%"></stop><stop stop-color="#03ACA4" offset="100%"></stop></linearGradient><linearGradient x1="50%" y1="0%" x2="50%" y2="100%" id="linearGradient-2"><stop stop-color="#04C7EF" offset="0%"></stop><stop stop-color="#0295D9" offset="100%"></stop></linearGradient></defs><g id="Page-1" stroke="none" stroke-width="1" fill="none" fill-rule="evenodd"><g id="logo_alpha-copy"><path d="M206.192,104.038 L222.152,104.038 L190.346,28 L178.718,28 L146,104.038 L162.074,104.038 L168.8,88.078 L199.466,88.078 L206.192,104.038 Z M173.474,75.994 L184.304,48.634 L195.134,75.994 L173.474,75.994 Z M275.768,54.676 L235.868,54.676 L235.868,83.746 C235.868,85.684 235.64,88.192 234.158,90.016 C233.246,91.156 231.536,92.41 228.458,92.41 C227.774,92.41 226.976,92.296 226.292,92.182 L226.292,104.038 C227.66,104.38 229.028,104.494 230.396,104.494 C238.49,104.494 242.708,100.39 243.734,99.25 C247.838,94.804 248.408,88.648 248.408,84.658 L248.408,66.532 L261.86,66.532 L261.86,104.038 L275.768,104.038 L275.768,54.676 Z M288.992,54.676 L288.992,104.038 L314.414,104.038 C317.72,104.038 321.824,103.582 325.472,100.39 C327.866,98.338 330.716,94.348 330.716,87.85 C330.716,82.948 329.12,79.528 326.954,77.248 C323.534,73.486 318.062,72.232 313.73,72.232 L302.9,72.232 L302.9,54.676 L288.992,54.676 Z M302.9,93.094 L302.9,83.176 L309.74,83.176 C310.994,83.176 313.046,83.29 314.528,84.316 C315.44,84.886 316.352,86.026 316.352,87.85 C316.352,89.788 315.44,91.156 314.528,91.84 C313.046,92.98 310.88,93.094 309.398,93.094 L302.9,93.094 Z M366.056,130.144 L379.964,130.144 L379.964,104.722 L381.104,104.722 C386.918,104.722 393.644,103.24 398.432,99.82 C402.878,96.742 408.236,90.358 408.236,79.3 C408.236,68.242 402.878,61.972 398.432,58.78 C392.618,54.676 385.778,53.992 381.104,53.992 L379.964,53.992 L379.964,28 L366.056,28 L366.056,53.992 L364.916,53.992 C360.242,53.992 353.402,54.676 347.588,58.78 C343.142,61.972 337.784,68.242 337.784,79.3 C337.784,90.358 343.142,96.742 347.588,99.82 C352.376,103.24 359.102,104.722 364.916,104.722 L366.056,104.722 L366.056,130.144 Z M366.056,92.41 C362.864,92.41 359.444,91.612 357.164,90.016 C352.718,87.052 352.148,82.492 352.148,79.3 C352.148,75.538 353.288,71.32 357.278,68.584 C359.786,66.874 363.092,66.19 366.056,66.304 L366.056,92.41 Z M379.964,66.304 C382.928,66.19 386.234,66.874 388.742,68.584 C392.732,71.32 393.872,75.538 393.872,79.3 C393.872,82.492 393.302,87.052 388.856,90.016 C386.576,91.612 383.156,92.41 379.964,92.41 L379.964,66.304 Z M456.8,61.06 C452.126,53.764 444.716,53.08 440.954,53.08 C426.362,53.08 416.444,64.708 416.444,79.3 C416.444,93.778 426.476,105.634 441.638,105.634 C445.172,105.634 451.784,104.836 456.8,97.654 L456.8,104.038 L470.708,104.038 L470.708,54.676 L456.8,54.676 L456.8,61.06 Z M444.488,65.392 C452.468,65.392 458.168,71.434 458.168,79.3 C458.168,87.166 452.468,93.322 444.488,93.322 C436.508,93.322 430.808,87.166 430.808,79.3 C430.808,71.434 436.508,65.392 444.488,65.392 Z M483.932,54.676 L483.932,104.038 L497.84,104.038 L497.84,85.684 L499.892,83.632 L516.992,104.038 L534.776,104.038 L511.292,76.678 L533.636,54.676 L516.308,54.676 L497.84,73.828 L497.84,54.676 L483.932,54.676 Z M578.096,56.044 C574.106,54.106 569.888,53.08 564.758,53.08 C559.97,53.08 553.016,54.106 546.974,59.464 C541.958,63.91 538.424,70.864 538.424,79.528 C538.424,88.762 542.528,94.918 546.29,98.452 C550.736,102.67 557.576,105.634 565.328,105.634 C571.028,105.634 575.36,103.924 578.096,102.556 L578.096,88.99 C574.334,92.41 570.23,93.322 567.152,93.322 C558.83,93.322 552.788,87.394 552.788,79.3 C552.788,72.118 557.462,65.392 566.696,65.392 C571.484,65.392 575.132,66.988 578.096,69.724 L578.096,56.044 Z M624.266,88.192 C621.986,92.182 617.996,94.69 612.752,94.69 C607.394,94.69 604.316,92.068 602.834,90.016 C601.238,87.85 600.44,84.658 600.44,81.694 L637.376,81.694 L637.376,80.554 C637.376,75.196 636.692,67.444 631.448,61.174 C628.028,57.07 622.214,53.08 612.182,53.08 C606.254,53.08 599.414,54.334 593.6,60.034 C590.066,63.568 586.076,69.61 586.076,79.414 C586.076,87.166 588.356,93.55 593.828,98.68 C598.73,103.354 604.772,105.634 612.752,105.634 C629.966,105.634 635.552,93.892 637.034,90.244 L624.266,88.192 Z M600.896,72.802 C602.036,66.19 607.394,62.884 612.524,62.884 C617.654,62.884 623.126,66.076 624.266,72.802 L600.896,72.802 Z M691.868,54.676 L651.968,54.676 L651.968,83.746 C651.968,85.684 651.74,88.192 650.258,90.016 C649.346,91.156 647.636,92.41 644.558,92.41 C643.874,92.41 643.076,92.296 642.392,92.182 L642.392,104.038 C643.76,104.38 645.128,104.494 646.496,104.494 C654.59,104.494 658.808,100.39 659.834,99.25 C663.938,94.804 664.508,88.648 664.508,84.658 L664.508,66.532 L677.96,66.532 L677.96,104.038 L691.868,104.038 L691.868,54.676 Z M740.774,88.192 C738.494,92.182 734.504,94.69 729.26,94.69 C723.902,94.69 720.824,92.068 719.342,90.016 C717.746,87.85 716.948,84.658 716.948,81.694 L753.884,81.694 L753.884,80.554 C753.884,75.196 753.2,67.444 747.956,61.174 C744.536,57.07 738.722,53.08 728.69,53.08 C722.762,53.08 715.922,54.334 710.108,60.034 C706.574,63.568 702.584,69.61 702.584,79.414 C702.584,87.166 704.864,93.55 710.336,98.68 C715.238,103.354 721.28,105.634 729.26,105.634 C746.474,105.634 752.06,93.892 753.542,90.244 L740.774,88.192 Z M717.404,72.802 C718.544,66.19 723.902,62.884 729.032,62.884 C734.162,62.884 739.634,66.076 740.774,72.802 L717.404,72.802 Z M778.508,97.654 C783.98,105.064 790.934,105.634 794.354,105.634 C801.65,105.634 807.35,102.784 811.112,99.25 C813.962,96.514 818.864,90.472 818.864,79.3 C818.864,69.496 815.102,63.34 811.454,59.692 C805.868,54.106 798.914,53.08 794.582,53.08 C785.462,53.08 780.674,57.982 778.508,61.06 L778.508,54.676 L764.6,54.676 L764.6,130.144 L778.508,130.144 L778.508,97.654 Z M790.82,65.392 C794.126,65.392 797.774,66.646 800.282,68.926 C803.018,71.548 804.5,75.652 804.5,79.3 C804.5,82.948 803.132,87.052 800.168,89.788 C798.344,91.498 795.38,93.322 790.82,93.322 C786.488,93.322 783.524,91.612 781.7,90.016 C778.964,87.622 777.14,83.86 777.14,79.3 C777.14,74.74 778.736,71.32 781.814,68.698 C784.322,66.418 787.172,65.392 790.82,65.392 Z M867.428,61.06 C862.754,53.764 855.344,53.08 851.582,53.08 C836.99,53.08 827.072,64.708 827.072,79.3 C827.072,93.778 837.104,105.634 852.266,105.634 C855.8,105.634 862.412,104.836 867.428,97.654 L867.428,104.038 L881.336,104.038 L881.336,54.676 L867.428,54.676 L867.428,61.06 Z M855.116,65.392 C863.096,65.392 868.796,71.434 868.796,79.3 C868.796,87.166 863.096,93.322 855.116,93.322 C847.136,93.322 841.436,87.166 841.436,79.3 C841.436,71.434 847.136,65.392 855.116,65.392 Z M929.9,66.532 L929.9,54.676 L888.632,54.676 L888.632,66.532 L902.312,66.532 L902.312,104.038 L916.22,104.038 L916.22,66.532 L929.9,66.532 Z M962.96,53.08 C953.612,53.08 947.228,56.158 943.01,60.034 C938.108,64.48 934.688,71.32 934.688,79.414 C934.688,87.394 938.108,94.234 943.01,98.68 C947.228,102.556 953.612,105.634 962.96,105.634 C972.308,105.634 978.692,102.556 982.91,98.68 C987.812,94.234 991.232,87.394 991.232,79.414 C991.232,71.32 987.812,64.48 982.91,60.034 C978.692,56.158 972.308,53.08 962.96,53.08 Z M962.96,93.322 C954.866,93.322 949.052,86.938 949.052,79.414 C949.052,71.662 954.98,65.392 962.96,65.392 C970.94,65.392 976.868,71.662 976.868,79.414 C976.868,86.938 971.054,93.322 962.96,93.322 Z M1015.856,97.654 C1021.328,105.064 1028.282,105.634 1031.702,105.634 C1038.998,105.634 1044.698,102.784 1048.46,99.25 C1051.31,96.514 1056.212,90.472 1056.212,79.3 C1056.212,69.496 1052.45,63.34 1048.802,59.692 C1043.216,54.106 1036.262,53.08 1031.93,53.08 C1022.81,53.08 1018.022,57.982 1015.856,61.06 L1015.856,54.676 L1001.948,54.676 L1001.948,130.144 L1015.856,130.144 L1015.856,97.654 Z M1028.168,65.392 C1031.474,65.392 1035.122,66.646 1037.63,68.926 C1040.366,71.548 1041.848,75.652 1041.848,79.3 C1041.848,82.948 1040.48,87.052 1037.516,89.788 C1035.692,91.498 1032.728,93.322 1028.168,93.322 C1023.836,93.322 1020.872,91.612 1019.048,90.016 C1016.312,87.622 1014.488,83.86 1014.488,79.3 C1014.488,74.74 1016.084,71.32 1019.162,68.698 C1021.67,66.418 1024.52,65.392 1028.168,65.392 Z" id="Альфакселератор-Copy-3" fill="url(#linearGradient-1)"></path><path d="M35.3830991,126.80923 C35.3127111,126.710686 34.7496074,126.654376 33.9190295,126.640298 C33.1729171,126.640298 32.2015633,126.569911 31.7792355,126.499523 C31.3569077,126.429135 30.6107954,126.316514 30.1321572,126.246126 C28.9214843,126.077195 27.3025612,125.711177 26.0074228,125.317005 C25.585095,125.204384 24.9797585,125.035453 24.6700515,124.950987 C24.3603445,124.866522 24.0506375,124.753901 23.9661719,124.669436 C23.8957839,124.599048 23.7268528,124.542737 23.6001545,124.542737 C23.4734562,124.542737 23.065206,124.416039 22.685111,124.247108 C22.305016,124.092254 21.8686107,123.909246 21.7137572,123.838858 C21.3899726,123.712159 18.5603766,122.318478 17.9972729,122.022848 C17.8001866,121.910228 17.6171779,121.769452 17.5890227,121.699064 C17.5608675,121.642753 17.4623244,121.586443 17.3778588,121.586443 C17.2230053,121.586443 14.2104006,119.61558 13.8725384,119.291795 C13.7739953,119.193252 13.3657451,118.869468 12.9856501,118.559761 C11.5638133,117.433553 8.9031484,114.7025 7.847329,113.294741 C7.65024271,113.041345 7.38276846,112.71756 7.25607013,112.604939 C7.11529421,112.478241 6.76335441,111.971448 6.48180257,111.478732 C6.18617313,110.986016 5.84831092,110.521456 5.707535,110.451068 C5.38375039,110.282137 4.80656911,109.282627 4.62356041,108.56467 C4.53909486,108.254963 4.18715506,107.438463 3.83521526,106.762738 C3.48327546,106.087014 3.20172362,105.439445 3.20172362,105.326824 C3.20172362,105.214203 3.14541325,105.11566 3.07502529,105.11566 C3.00463733,105.11566 2.89201659,104.918574 2.84978381,104.665177 C2.79347345,104.411781 2.6949303,104.116151 2.62454234,103.989453 C2.31483532,103.440427 1.62503331,101.173934 1.23086073,99.4142354 C1.14639517,99.0341405 1.00561925,98.5132695 0.935231294,98.2739505 C0.780377781,97.739002 0.5692139,96.359398 0.372127612,94.6278541 C0.301739651,93.9380521 0.175041323,92.7555344 0.0905757704,92.0234996 C-0.148743295,89.9822488 0.118730955,82.5774353 0.512903532,80.2827878 C0.653679453,79.4099771 0.878920926,77.9881403 1.09008481,76.4677604 C1.16047277,76.0031998 1.2730935,75.4400962 1.35755906,75.2289323 C1.44202461,75.0036908 1.51241257,74.6799062 1.51241257,74.4968975 C1.51241257,74.3279664 1.61095571,73.8352507 1.73765404,73.4270005 C1.85027478,73.0046727 2.03328347,72.3571035 2.14590421,71.9629309 C2.59638716,70.4003182 3.3988099,68.0212051 3.51143064,67.9789724 C3.56774101,67.9508172 3.62405138,67.7959637 3.62405138,67.6411102 C3.62405138,67.4862566 3.70851693,67.1906272 3.82113767,66.9935409 C4.21531024,66.2051958 4.60948282,65.3042299 4.60948282,65.1493764 C4.60948282,65.0649108 4.67987078,64.9945228 4.75025874,64.9945228 C4.8347243,64.9945228 4.89103466,64.8959797 4.89103466,64.783359 C4.89103466,64.6003503 5.83423333,62.643565 6.01724203,62.4605563 C6.0594748,62.4183235 6.22840591,62.1086165 6.41141461,61.7566767 C6.777432,61.0387195 6.86189755,60.8979436 7.63616512,59.7295034 C8.29781194,58.744072 8.87499322,57.913494 8.97353636,57.8149509 C9.01576914,57.7727181 9.29732098,57.4348559 9.607028,57.0406833 C9.91673503,56.6605883 10.29683,56.1819502 10.4516835,55.9848639 C10.8317785,55.534381 13.5909866,52.7610953 14.1118575,52.3387676 C15.2099096,51.4237241 16.8429103,50.2130512 16.9836862,50.2130512 C17.0681518,50.2130512 17.1385398,50.1426632 17.1385398,50.0722753 C17.1385398,49.9878097 17.2793157,49.8611114 17.4623244,49.7907234 C17.8001866,49.6358699 18.2929023,49.3402405 18.405523,49.2135421 C18.7433853,48.8334472 22.8258869,46.8344291 23.2622923,46.8344291 C23.3608354,46.8344291 23.4734562,46.7781187 23.5016114,46.7218084 C23.5579217,46.5810324 26.5705264,45.5674458 26.9506214,45.5674458 C27.0913973,45.5674458 27.274406,45.5111354 27.3588716,45.4407475 C27.4292596,45.3562819 27.8375097,45.2295836 28.2598375,45.1591956 C28.6821652,45.0747301 29.4142,44.9480318 29.8787606,44.8635662 C30.3433211,44.7791006 31.0753559,44.6242471 31.4976837,44.5397816 C32.5675807,44.3145401 40.7185065,44.3145401 41.7743259,44.5397816 C42.1966536,44.6383247 42.9568436,44.7791006 43.4636369,44.8635662 C45.3781894,45.1591956 46.0679914,45.2999716 46.2791553,45.4125923 C46.4058537,45.4829803 46.7859486,45.5815234 47.1238108,45.6378338 C47.4757506,45.6941441 47.8276905,45.7926873 47.8980784,45.8489976 C47.982544,45.905308 48.3063286,46.0038512 48.6301132,46.0601615 C48.9679754,46.1164719 49.2636048,46.215015 49.3199152,46.285403 C49.362148,46.355791 49.5310791,46.4121013 49.7000102,46.4121013 C49.8689413,46.4121013 50.1927259,46.5106445 50.4179674,46.6232652 C50.6291313,46.7358859 50.8825279,46.8344291 50.9529159,46.8344291 C51.0373814,46.8344291 51.2907781,46.9188946 51.5300972,47.0315154 C51.7834938,47.1300585 52.262132,47.3271448 52.6140718,47.4679207 C53.9092102,47.9606365 57.1470564,49.495094 57.2596771,49.6640251 C57.3019099,49.7203355 57.5130738,49.8188786 57.7242377,49.8611114 C57.9354016,49.9174218 58.1043327,50.0159649 58.1043327,50.0863529 C58.1043327,50.1567408 58.1887982,50.2130512 58.3014189,50.2130512 C58.4140397,50.2130512 58.5970484,50.2975167 58.6955915,50.3819823 C58.991221,50.6494565 59.3994711,50.9028532 59.8358765,51.0999395 C60.0470404,51.184405 60.2159715,51.3111034 60.2159715,51.3674137 C60.2159715,51.4237241 60.2863594,51.4800345 60.3567474,51.4800345 C60.5256785,51.4800345 61.3844116,52.0572157 61.4547996,52.2261468 C61.4829548,52.2824572 61.5674203,52.32469 61.6378083,52.32469 C61.7926618,52.32469 62.6513949,52.9159489 62.7217829,53.0708024 C62.749938,53.1271127 62.8344036,53.1693455 62.9047915,53.1693455 C63.0596451,53.1693455 64.3547835,54.1406994 64.4110939,54.3096305 C64.4392491,54.3800184 64.5377922,54.4363288 64.6222578,54.4363288 C64.7208009,54.4363288 65.0164304,54.6474927 65.2979822,54.9008893 C65.579534,55.1402084 66.1144825,55.6047689 66.4945775,55.914476 C68.3950525,57.4770887 72.8858043,61.9678406 72.8858043,62.3057028 C72.8858043,62.3760907 72.9702699,62.4605563 73.0828906,62.5027891 C73.2095889,62.5590994 73.3503649,62.3760907 73.519296,61.9959957 C73.6459943,61.6722111 73.8430806,61.2217282 73.9416237,60.9824091 C74.13871,60.5319262 74.3780291,59.9829001 74.7862792,58.9411583 C75.2930726,57.6882526 75.5746244,57.0406833 75.6872451,56.8295195 C75.7576331,56.7028211 75.8561762,56.4071917 75.9124866,56.153795 C75.9547194,55.9003984 76.0673401,55.7033121 76.1377281,55.7033121 C76.208116,55.7033121 76.2644264,55.6188465 76.2644264,55.5062258 C76.2644264,55.4076827 76.3911247,55.0135101 76.5600558,54.6334151 C76.7149094,54.2533201 76.9401508,53.7183716 77.0527716,53.4508974 C77.1653923,53.1834231 77.3202458,52.8455609 77.3906338,52.7188626 C77.4750993,52.5780867 77.5314097,52.395078 77.5314097,52.32469 C77.5314097,52.2402244 77.658108,51.874207 77.8270391,51.5081897 C78.2212117,50.5931462 78.3056773,50.3960599 78.6576171,49.5091716 C78.8124706,49.0868438 79.0095569,48.6082057 79.0799448,48.4533522 C79.1362552,48.2984987 79.3333415,47.8198605 79.5022726,47.3975328 C79.8260572,46.5528772 79.8401348,46.5247221 80.4736264,45.1028853 C80.7129455,44.5679368 80.9100318,44.0892986 80.9100318,44.0329883 C80.9100318,43.9626003 81.0367301,43.6106605 81.2056612,43.2305655 C81.6420666,42.1888237 81.8954632,41.5975648 82.0643943,41.2033923 C82.1347823,41.006306 82.2896358,40.6684438 82.4022566,40.4291247 C82.5007997,40.2038832 82.627498,39.8378658 82.6838084,39.626702 C82.7260412,39.4014605 82.8245843,39.2325294 82.8949723,39.2325294 C82.9653602,39.2325294 83.0216706,39.105831 83.0216706,38.9368999 C83.0216706,38.7820464 83.1202137,38.4723394 83.2328345,38.2752531 C83.3313776,38.0640892 83.6692398,37.2898217 83.9507917,36.5577869 C84.2323435,35.8257521 84.5138954,35.1218725 84.5702057,35.0092518 C84.6405937,34.896631 84.7954472,34.516536 84.9221455,34.1645962 C85.0488439,33.8126564 85.2459302,33.3480959 85.3444733,33.1087768 C85.5415596,32.6582939 85.7808786,32.1092678 86.1891288,31.067526 C86.6959221,29.8146203 86.977474,29.1670511 87.0900947,28.9558872 C87.1604827,28.8291888 87.2590258,28.5335594 87.3153362,28.2801628 C87.357569,28.0267661 87.4701897,27.8296798 87.5405777,27.8296798 C87.6109656,27.8296798 87.667276,27.7311367 87.667276,27.6185159 C87.667276,27.5058952 87.7658191,27.1821106 87.8925175,26.8864811 C88.357078,25.788429 88.4837763,25.4927995 88.7230954,24.8733855 C88.8497937,24.5214457 89.04688,24.0568851 89.1454232,23.8175661 C89.2439663,23.5923246 89.426975,23.1136865 89.5677509,22.7617467 C89.6944492,22.4098069 89.8915355,21.9452463 89.9900787,21.7059273 C90.2857081,21.0442804 90.5672599,20.368556 90.9191998,19.4535125 C91.1022084,18.988952 91.2992947,18.5947794 91.3696827,18.5666242 C91.4259931,18.538469 91.4682258,18.4258483 91.4682258,18.29915 C91.4682258,18.1020637 91.6653121,17.609348 92.1017175,16.6379941 C92.2143382,16.4127526 92.4395797,15.8637266 92.5944332,15.4413988 C92.7633643,15.019071 92.9886058,14.4418898 93.1012265,14.1744155 C93.396856,13.4986911 93.5094767,13.2452944 93.8614165,12.3443285 C94.01627,11.9220008 94.2133563,11.4433626 94.2837443,11.2885091 C94.3400546,11.1336556 94.5371409,10.6550175 94.706072,10.2326897 C94.8609255,9.81036197 95.0580118,9.33172384 95.1283998,9.17687032 C95.1847101,9.02201681 95.395874,8.5152235 95.5788827,8.05066296 C95.7478138,7.58610242 95.9449001,7.17785225 96.0152881,7.16377466 C96.0715984,7.13561948 96.1138312,7.02299874 96.1138312,6.89630041 C96.1138312,6.78367967 96.2123744,6.45989506 96.3390727,6.17834322 C96.9725643,4.71427364 97.1274179,4.37641143 97.2541162,4.15116996 C97.3245041,4.01039404 97.3808145,3.82738534 97.3808145,3.75699738 C97.3808145,3.67253183 97.5075128,3.30651443 97.6764439,2.94049704 C97.8312975,2.57447965 98.0283837,2.1239967 98.0987717,1.92691041 C98.1832373,1.72982412 98.3380908,1.39196191 98.4507115,1.18079803 C98.5633322,0.95555656 98.6477978,0.702159903 98.6477978,0.603616759 C98.6477978,0.505073614 98.7322633,0.322064918 98.8308065,0.181288997 C98.9997376,-0.058030068 99.0419704,-0.058030068 99.5628413,0.167211405 C100.632738,0.631771943 100.9706,0.772547864 101.604092,1.01186693 C101.956032,1.13856526 102.43467,1.33565155 102.659912,1.43419469 C102.899231,1.53273783 103.363791,1.71574653 103.715731,1.85652245 C104.067671,1.98322078 104.546309,2.18030707 104.77155,2.27885021 C105.222033,2.4759365 105.771059,2.71525557 106.812801,3.12350574 C108.065707,3.63029905 108.713276,3.91185089 108.92444,4.02447163 C109.051138,4.09485959 109.346768,4.19340273 109.600164,4.2497131 C109.853561,4.29194588 110.050647,4.40456662 110.050647,4.47495458 C110.050647,4.54534254 110.135113,4.6016529 110.247734,4.6016529 C110.416665,4.6016529 111.176855,4.89728234 112.091898,5.30553251 C112.246752,5.37592047 112.72539,5.57300676 113.147718,5.72786027 C114.062761,6.07980007 114.808873,6.3895071 115.146736,6.57251579 C115.287512,6.65698135 115.484598,6.71329171 115.583141,6.71329171 C115.681684,6.71329171 115.892848,6.81183486 116.061779,6.92445559 L116.371486,7.13561948 L116.089934,7.81134389 C115.935081,8.17736129 115.752072,8.59968905 115.681684,8.75454256 C115.611296,8.90939608 115.329744,9.61327568 115.048193,10.3030777 C114.766641,11.0069573 114.485089,11.6967593 114.428778,11.8516128 C114.358391,12.0064663 114.189459,12.4147165 114.048684,12.7666563 C113.584123,13.9350964 113.274416,14.6671312 113.161795,14.8782951 C113.091407,15.0049934 112.992864,15.3006229 112.936554,15.5540195 C112.894321,15.8074162 112.7817,16.0045025 112.711312,16.0045025 C112.640924,16.0045025 112.584614,16.1171232 112.584614,16.2578991 C112.584614,16.3986751 112.500148,16.6239165 112.387528,16.77877 C112.288985,16.9336236 112.148209,17.2855634 112.091898,17.5530376 C112.035588,17.8205119 111.937045,18.0739085 111.894812,18.1161413 C111.754036,18.2146844 111.317631,19.1860383 111.317631,19.3831246 C111.317631,19.4675901 111.134622,19.9180731 110.895303,20.3967112 C110.670061,20.8612717 110.472975,21.3258323 110.472975,21.4243754 C110.472975,21.5229186 110.346277,21.9030135 110.177346,22.2831085 C110.022492,22.6632035 109.839483,23.0996089 109.769096,23.2544624 C109.712785,23.4093159 109.501621,23.9161092 109.318613,24.3806698 C109.149681,24.8452303 108.952595,25.2534805 108.896285,25.2675581 C108.825897,25.2957132 108.783664,25.408334 108.783664,25.5350323 C108.783664,25.647653 108.685121,25.9714377 108.558423,26.2529895 C108.445802,26.5486189 108.248716,26.9991019 108.122017,27.2665761 C108.009397,27.5340504 107.826388,27.9423005 107.713767,28.1534644 C107.601146,28.3787059 107.516681,28.618025 107.516681,28.6884129 C107.516681,28.7728785 107.389982,29.1248183 107.221051,29.4908357 C107.066198,29.8568531 106.869112,30.307336 106.784646,30.5044223 C106.714258,30.7015086 106.559405,31.0534484 106.446784,31.2786899 C106.348241,31.5180089 106.221542,31.8699487 106.165232,32.0951902 C106.122999,32.3063541 106.024456,32.4752852 105.954068,32.4752852 C105.88368,32.4752852 105.82737,32.5738283 105.82737,32.7005267 C105.82737,32.827225 105.728827,33.1510096 105.602128,33.4325614 C105.489508,33.7281909 105.306499,34.1505186 105.207956,34.3757601 C105.095335,34.6150792 104.912326,35.0796397 104.77155,35.4315795 C104.644852,35.7835193 104.447766,36.2621575 104.349223,36.4873989 C104.250679,36.726718 104.067671,37.1912785 103.926895,37.5432183 C103.800196,37.8951581 103.60311,38.3737963 103.504567,38.5990377 C103.208938,39.2606846 102.927386,39.936409 102.575446,40.8514525 C102.392437,41.316013 102.195351,41.7242632 102.139041,41.7383408 C102.068653,41.7664959 102.02642,41.8931943 102.02642,42.0198926 C102.02642,42.1606685 101.941954,42.4281428 101.829334,42.6393067 C101.716713,42.8504705 101.590015,43.2024103 101.533704,43.4417294 C101.477394,43.6810485 101.378851,43.8781348 101.308463,43.8781348 C101.238075,43.8781348 101.181764,43.9626003 101.181764,44.075221 C101.181764,44.2441521 100.984678,44.7509455 100.407497,46.0601615 C100.308954,46.2994806 100.125945,46.7781187 99.9992466,47.1441361 C99.8725483,47.5101535 99.7176948,47.9324813 99.6473068,48.0591796 C99.5769189,48.1999555 99.4079878,48.5941281 99.2812894,48.9460679 C99.1405135,49.2980077 98.9011945,49.8611114 98.7604185,50.2130512 C98.3944011,51.0436291 98.3099356,51.254793 97.915763,52.254302 C97.7468319,52.7188626 97.5497456,53.1271127 97.4934352,53.1411903 C97.4230473,53.1693455 97.3808145,53.2819663 97.3808145,53.4086646 C97.3808145,53.5212853 97.2822714,53.8450699 97.155573,54.1266218 C96.5220814,55.5906914 96.3672279,55.9285536 96.2405296,56.153795 C96.1701416,56.294571 96.1138312,56.4775797 96.1138312,56.5479676 C96.1138312,56.6324332 95.9871329,56.9984506 95.8182018,57.364468 C95.4240292,58.2795114 95.3395637,58.4765977 94.9876239,59.363486 C94.8327703,59.7858138 94.6356841,60.2644519 94.5652961,60.4193054 C94.5089857,60.5741589 94.3118994,61.0527971 94.1429683,61.4751248 C93.7910285,62.3760907 93.6220974,62.7843409 93.3546232,63.3755998 C93.25608,63.6149188 93.1293817,63.9668586 93.0730713,64.1921001 C93.0308386,64.403264 92.9322954,64.5721951 92.8619075,64.5721951 C92.7915195,64.5721951 92.7352091,64.6707382 92.7352091,64.783359 C92.7352091,64.8959797 92.636666,65.2197643 92.5099677,65.5153938 C92.3832693,65.8110232 92.1580279,66.3318941 92.0031743,66.6838339 C91.8483208,67.0357737 91.6793897,67.4299463 91.5949242,67.5566446 C91.5245362,67.6974205 91.4682258,67.8804292 91.4682258,67.9789724 C91.4541482,68.0775155 91.3415275,68.4153777 91.186674,68.7250847 C91.0318205,69.0347918 90.9191998,69.372654 90.9051222,69.4711971 C90.9051222,69.5556627 90.8488118,69.6401282 90.7643462,69.6401282 C90.6939583,69.6401282 90.6235703,69.7809041 90.6235703,69.9639128 C90.6235703,70.132844 90.5391048,70.4003182 90.426484,70.5551717 C90.3279409,70.7100252 90.187165,71.0478874 90.1308546,71.3012841 C90.0886218,71.5406032 89.9900787,71.751767 89.9478459,71.751767 C89.8915355,71.751767 89.7648372,72.0192413 89.6662941,72.3571035 C89.497363,72.8779744 88.8357161,74.5532079 88.3148452,75.7638808 C88.2022245,76.0031998 88.0051382,76.4677604 87.8643623,76.8197002 C87.7376639,77.17164 87.4983449,77.7347437 87.357569,78.0866835 C87.2027154,78.4386233 87.0197068,78.8750286 86.9493188,79.0721149 C86.8648532,79.2692012 86.7099997,79.6070634 86.597379,79.8323049 C86.4143703,80.1842447 86.4143703,80.2687102 86.6114566,80.4798741 C86.7240773,80.6065724 86.8226205,80.7755035 86.8226205,80.8599691 C86.8226205,80.9444347 86.9211636,81.0429778 87.0337843,81.0992882 C87.1464051,81.1415209 87.2449482,81.2541417 87.2449482,81.3667624 C87.2449482,81.4653056 87.4420345,81.7327798 87.667276,81.9580213 C87.9065951,82.1832628 88.0896037,82.4366594 88.0896037,82.5352026 C88.0896037,82.6337457 88.1459141,82.7322888 88.2163021,82.760444 C88.3852332,82.8167544 89.356587,84.1118929 89.356587,84.280824 C89.356587,84.3652895 89.4128974,84.4215999 89.4832854,84.4215999 C89.5536733,84.4215999 89.80707,84.7172293 90.0323115,85.0973243 C90.2575529,85.4633417 90.5813375,85.9138247 90.7502686,86.1109109 C91.1444412,86.5895491 91.2289068,86.6880922 91.4823034,87.0963424 C91.6090018,87.2934287 91.8342432,87.5890581 91.9750192,87.7579892 C92.1298727,87.9128427 92.3410365,88.1943946 92.4536573,88.3633257 C92.6507436,88.6448775 93.0589937,89.2079812 93.3405456,89.559921 C94.1148131,90.5453524 95.2691757,92.1783531 95.2691757,92.2909739 C95.2691757,92.3613618 95.3254861,92.4458274 95.395874,92.4739826 C95.5648051,92.5302929 96.536159,93.8254314 96.536159,93.9802849 C96.536159,94.0506729 96.5924694,94.1351384 96.6628573,94.1632936 C96.8317884,94.219604 97.8031423,95.5147424 97.8031423,95.6836735 C97.8031423,95.7681391 97.8594526,95.8244495 97.9439182,95.8244495 C98.0143062,95.8244495 98.2395476,96.1060013 98.4507115,96.4579411 C98.6477978,96.8098809 98.8730393,97.0914327 98.9434272,97.0914327 C99.0138152,97.0914327 99.0701256,97.1758983 99.0701256,97.288519 C99.0701256,97.4011398 99.1264359,97.5137605 99.1827463,97.5419157 C99.2531343,97.5700709 99.5487637,97.9360883 99.8443931,98.358416 C100.140023,98.7807438 100.435652,99.188994 100.50604,99.2734595 C100.56235,99.3438475 100.85798,99.7380201 101.139532,100.118115 C101.435161,100.512288 101.716713,100.892383 101.773023,100.962771 C102.153118,101.427331 104.166214,104.172462 104.560386,104.76372 C104.813783,105.157893 105.151645,105.594298 105.278344,105.749152 C105.996301,106.551575 106.672025,107.452541 106.672025,107.607394 C106.672025,107.705937 106.728336,107.790403 106.798724,107.790403 C106.869112,107.790403 106.967655,107.903023 107.009887,108.043799 C107.066198,108.170498 107.291439,108.50836 107.516681,108.775834 C108.037552,109.381171 108.093862,109.465636 108.375414,109.902042 C108.502112,110.099128 108.741431,110.408835 108.910362,110.605921 C109.318613,111.098637 109.389001,111.19718 109.670552,111.633585 C109.923949,112.01368 109.909871,112.027758 109.529776,112.36562 C109.318613,112.548629 109.065216,112.71756 108.966673,112.71756 C108.882207,112.71756 108.783664,112.77387 108.755509,112.844258 C108.699199,113.013189 107.40406,113.984543 107.235129,113.984543 C107.150663,113.984543 107.094353,114.040854 107.094353,114.125319 C107.094353,114.195707 106.812801,114.420949 106.460861,114.632112 C106.108922,114.829199 105.82737,115.05444 105.82737,115.124828 C105.82737,115.195216 105.756982,115.251527 105.686594,115.251527 C105.602128,115.251527 105.461352,115.321914 105.362809,115.392302 C104.743395,115.913173 104.504076,116.096182 104.433688,116.096182 C104.391455,116.096182 104.194369,116.236958 103.997283,116.419967 C103.800196,116.588898 103.420102,116.884527 103.13855,117.081613 C102.856998,117.2787 102.448748,117.574329 102.223506,117.757338 C100.85798,118.813157 99.3375998,119.897132 99.2249791,119.897132 C99.1545911,119.897132 99.0701256,119.953442 99.0419704,120.02383 C98.98566,120.192761 97.6905215,121.164115 97.5215904,121.164115 C97.4371249,121.164115 97.3808145,121.220426 97.3808145,121.290814 C97.3808145,121.361201 97.0711075,121.614598 96.6910125,121.867995 C96.2968399,122.107314 95.775969,122.487409 95.5225724,122.71265 C95.2691757,122.951969 94.9876239,123.134978 94.9031583,123.134978 C94.7201496,123.134978 93.1575369,121.121882 93.1575369,120.882563 C93.1575369,120.812175 93.1012265,120.741787 93.016761,120.741787 C92.946373,120.741787 92.7211315,120.460236 92.5099677,120.108296 C92.3128814,119.756356 92.1017175,119.474804 92.0454071,119.474804 C91.9890967,119.474804 91.8060881,119.235485 91.6512345,118.939856 C91.4823034,118.658304 91.186674,118.264131 90.9895877,118.081123 C90.7925014,117.884036 90.6235703,117.672872 90.6235703,117.588407 C90.6235703,117.503941 90.3420185,117.123846 89.9900787,116.729674 C89.6522165,116.349579 89.356587,115.941329 89.356587,115.856863 C89.356587,115.75832 89.3002767,115.673854 89.2439663,115.673854 C89.1876559,115.673854 88.9624145,115.40638 88.7512506,115.082595 C88.5400867,114.744733 88.2303797,114.308328 88.0614486,114.097164 C87.8784399,113.900078 87.6391208,113.590371 87.5265001,113.42144 C87.3294138,113.12581 86.8930084,112.534551 86.6396118,112.224844 C85.907577,111.309801 83.4439984,107.888946 83.4439984,107.790403 C83.4439984,107.734092 83.387688,107.649627 83.3173,107.621472 C83.1483689,107.565161 82.1770151,106.270023 82.1770151,106.101092 C82.1770151,106.016626 82.1207047,105.960316 82.0643943,105.960316 C82.008084,105.960316 81.7687649,105.678764 81.557601,105.326824 C81.3323596,104.974884 81.0930405,104.693332 81.0367301,104.693332 C80.9663422,104.693332 80.9100318,104.594789 80.9100318,104.482169 C80.9100318,104.369548 80.8537214,104.271005 80.7974111,104.271005 C80.7411007,104.271005 80.5017816,103.989453 80.2906177,103.637513 C80.0653763,103.285573 79.8260572,103.004021 79.7697468,103.004021 C79.6993589,103.004021 79.6430485,102.933633 79.6430485,102.849168 C79.6430485,102.764702 79.558583,102.609849 79.4741174,102.511306 C79.1925656,102.201599 79.0377121,101.990435 78.6576171,101.427331 C78.4605308,101.131702 78.2634445,100.892383 78.2071341,100.892383 C78.1367462,100.892383 78.0945134,100.779762 78.0945134,100.653064 C78.0804358,100.427822 78.0663582,100.427822 77.8692719,100.681219 C77.7425736,100.836072 77.5877201,101.131702 77.5032545,101.356943 C77.4328666,101.568107 77.3061682,101.737038 77.2357803,101.737038 C77.1653923,101.737038 77.1090819,101.807426 77.1090819,101.891892 C77.1090819,102.088978 76.1095729,103.764211 75.9547194,103.820522 C75.898409,103.848677 75.8420987,103.94722 75.8420987,104.017608 C75.8420987,104.228772 73.5615287,107.649627 73.4207528,107.649627 C73.3644425,107.649627 73.3081321,107.720015 73.3081321,107.80448 C73.3081321,107.931179 72.6183301,108.8603 72.1115368,109.423403 C72.0411488,109.507869 71.689209,109.916119 71.3372692,110.324369 C69.4367943,112.576784 67.4236986,114.58988 65.6358444,116.025794 C65.2416718,116.335501 64.9038096,116.631131 64.8615768,116.687441 C64.8193441,116.729674 64.2140076,117.194234 63.5242056,117.715105 C62.820326,118.221898 62.1586792,118.728692 62.0319808,118.813157 C61.9193601,118.9117 61.6941186,119.052476 61.5392651,119.15102 C59.2023848,120.615089 58.2591862,121.164115 58.1324878,121.164115 C58.0480223,121.164115 57.9635567,121.220426 57.9354016,121.290814 C57.8931688,121.417512 54.5567795,123.050513 53.4587273,123.47284 C53.1067875,123.613616 52.6563045,123.810702 52.4451406,123.923323 C52.2480544,124.035944 51.9524249,124.12041 51.811649,124.12041 C51.6708731,124.12041 51.4878644,124.17672 51.4174764,124.23303 C51.2767005,124.359729 50.0378724,124.767979 48.5315701,125.190307 C48.1092423,125.317005 47.5461386,125.471858 47.292742,125.556324 C47.0252677,125.626712 46.4903192,125.75341 46.0961466,125.809721 C45.6878965,125.880109 45.012172,126.006807 44.5898443,126.091272 C42.8160677,126.429135 42.0136449,126.541755 40.1413252,126.668454 C36.0869787,126.950006 35.4816422,126.978161 35.3830991,126.80923 Z M39.803463,107.720015 C41.492774,107.522928 42.9990764,107.227299 43.2665506,107.058368 C43.3510162,107.002058 43.6888784,106.917592 43.9985854,106.861282 C44.32237,106.804971 44.5898443,106.720506 44.5898443,106.664195 C44.5898443,106.607885 44.8150857,106.509342 45.0966376,106.453031 C45.3781894,106.410799 45.7160516,106.312256 45.84275,106.241868 C45.9694483,106.17148 46.9548797,105.692841 48.0388543,105.157893 C49.1228289,104.637022 50.0378724,104.172462 50.0801052,104.130229 C50.2349587,103.975375 51.051459,103.426349 51.1359246,103.426349 C51.2063125,103.426349 51.3752437,103.299651 51.811649,102.919556 C51.9101921,102.83509 52.0791233,102.708392 52.2198992,102.638004 C53.1208651,102.131211 57.6820049,97.6263812 57.6820049,97.2322087 C57.6820049,97.1758983 57.7664704,97.0492 57.8790912,96.9647344 C58.1043327,96.7817257 59.99073,93.9802849 60.5397561,93.0089311 C60.9761614,92.2487411 62.3276103,89.5317658 62.3276103,89.4191451 C62.3276103,89.3628347 62.4543086,89.0390501 62.6232397,88.6730327 C63.0174123,87.7579892 63.1018778,87.5609029 63.4538176,86.6740146 C63.6086712,86.2516869 63.8057574,85.7730487 63.8761454,85.6181952 C63.9324558,85.4633417 64.1436197,84.9565484 64.3266283,84.4919879 C64.4955595,84.0274273 64.6926457,83.6332547 64.7630337,83.6050996 C65.0023528,83.4924788 64.8334217,82.760444 64.4392491,82.3099611 C64.2140076,82.0424868 64.0309989,81.7468574 64.0169213,81.6483143 C64.0169213,81.5638487 63.960611,81.4653056 63.9043006,81.4371504 C63.8339126,81.4230728 63.5382832,81.0429778 63.2426538,80.62065 C62.9470243,80.1983223 62.6513949,79.7900721 62.5810069,79.7056066 C62.0179032,79.0298821 61.9052825,78.8750286 61.9052825,78.8046407 C61.9052825,78.7624079 61.7645066,78.5653216 61.5955755,78.3682353 C61.4125668,78.171149 61.1028598,77.7628988 60.8916959,77.4531918 C60.680532,77.1434848 60.3426698,76.7070794 60.1455835,76.4677604 C59.9625748,76.2425189 59.7514109,75.9891222 59.6951006,75.9046567 C58.1043327,73.8774834 55.4718229,71.2590513 53.5291152,69.752749 C53.4587273,69.682361 53.1630978,69.4430419 52.8956236,69.2178005 C52.6281493,68.992559 52.3606751,68.7954727 52.3184423,68.7954727 C52.2762095,68.7954727 52.0791233,68.6687744 51.8961146,68.5139209 C51.7131059,68.3590674 51.501942,68.1901362 51.4174764,68.1197483 C51.3470885,68.0634379 51.1781574,67.9648948 51.0655366,67.9085844 C50.9529159,67.852274 50.671364,67.6833429 50.432045,67.5284894 C50.2068035,67.3736359 49.8407861,67.162472 49.6296222,67.0780065 C49.4043808,66.9794633 49.2354497,66.852765 49.2354497,66.7964546 C49.2354497,66.7401443 49.1509841,66.6838339 49.0383634,66.6838339 C48.9257426,66.6838339 48.7427339,66.5993683 48.6441908,66.5149028 C48.4471045,66.3178165 47.0393453,65.5998593 45.9272155,65.1352988 C45.5471205,64.9804453 45.1107152,64.783359 44.9840169,64.712971 C44.8432409,64.6285055 44.6320771,64.5721951 44.5053787,64.5721951 C44.3786804,64.5721951 44.083051,64.4877295 43.8437319,64.3751088 C43.3791714,64.1780225 42.4500503,63.9246259 40.6481185,63.4882205 C39.803463,63.2911342 38.9869626,63.2348238 36.6360048,63.2348238 C33.6656328,63.2348238 33.0884516,63.3052118 31.4272957,63.8964707 C31.2020542,63.9809362 30.8360368,64.0794794 30.624873,64.1076345 C30.3996315,64.1498673 30.2307004,64.2343329 30.2307004,64.3047208 C30.2307004,64.3751088 30.1603124,64.4314192 30.0758469,64.4314192 C29.9069158,64.4314192 28.6680877,65.0086004 28.5413893,65.1352988 C28.4991566,65.1775315 28.3302254,65.2760747 28.1753719,65.3464626 C27.0069318,65.8814111 24.6278187,68.2464466 23.4030682,70.0906112 C23.0511284,70.6114821 22.5161799,71.5687583 22.1923953,72.20225 C21.8826883,72.8498192 21.5729813,73.4692333 21.5025933,73.581854 C21.4462829,73.7085523 21.3477398,74.0041818 21.2914294,74.2575784 C21.2491966,74.5109751 21.1365759,74.7080614 21.0661879,74.7080614 C20.9958,74.7080614 20.9394896,74.8488373 20.9394896,75.031846 C20.9394896,75.2007771 20.8550241,75.5104841 20.7424033,75.7075704 C20.6438602,75.9046567 20.5171619,76.3129069 20.4467739,76.6226139 C20.3904635,76.9182433 20.305998,77.2279503 20.2637652,77.3124159 C20.0244461,77.6643557 19.4331873,80.9444347 19.1375578,83.4361684 C18.7433853,86.9414889 18.8841612,93.3327157 19.3909545,94.4870782 C19.4613424,94.6419317 19.5598856,94.9938715 19.6021184,95.2613458 C19.7006615,95.7962943 20.0103685,96.7676481 20.3200756,97.4715277 C20.4326963,97.7108468 20.5171619,98.0064762 20.5171619,98.1331746 C20.5171619,98.2598729 20.5734722,98.358416 20.6438602,98.358416 C20.7142481,98.358416 20.8127913,98.5555023 20.8691017,98.7807438 C20.925412,99.0200629 21.0098776,99.2030716 21.0802655,99.2030716 C21.1365759,99.2030716 21.235119,99.3579251 21.2773518,99.5409338 C21.4744381,100.329279 23.7127752,102.989944 25.1205345,104.116151 C26.3312074,105.073427 28.1612943,106.087014 29.7379847,106.664195 C30.2025452,106.847204 30.7093385,107.030213 30.864192,107.100601 C31.314675,107.283609 32.4831151,107.522928 33.6093225,107.663704 C34.1865037,107.74817 35.0452369,107.860791 35.5097974,107.931179 C36.4389185,108.057877 37.3398844,108.015644 39.803463,107.720015 Z" id="Shape" fill="url(#linearGradient-2)"></path></g></g></svg> 